<svg xmlns="http://www.w3.org/2000/svg" viewBox="0 0 269 231.07"><defs><style>.cls-1{fill:#fff;}</style></defs><title>Asset 4</title><g id="Layer_2" data-name="Layer 2"><g id="Layer_1-2" data-name="Layer 1"><path class="cls-1" d="M135.55,131.07a5,5,0,0,0-5.82,4l-4.19,22a5,5,0,0,0,4,5.81l8.49,1.62a58.68,58.68,0,0,0,2.83,13.65L133.66,183a5,5,0,0,0-1.32,6.91l12.58,18.5a4.93,4.93,0,0,0,3.18,2.09,5,5,0,0,0,3.73-.77l7.15-4.86a58.54,58.54,0,0,0,11.64,7.66L169,221a5,5,0,0,0,4,5.82l22,4.19a4.88,4.88,0,0,0,.93.09,5,5,0,0,0,4.88-4l1.62-8.48A58.69,58.69,0,0,0,216,215.7l4.86,7.16a5,5,0,0,0,6.91,1.31L246.3,211.6a5,5,0,0,0,1.32-6.91l-4.87-7.15a59.1,59.1,0,0,0,7.67-11.65l8.48,1.62a5,5,0,0,0,5.82-3.95l4.19-22a5,5,0,0,0-4-5.82l-8.49-1.62a59,59,0,0,0-2.83-13.64l7.15-4.86a5,5,0,0,0,1.32-6.92l-12.58-18.5a5,5,0,0,0-6.91-1.32l-7.15,4.86a58.76,58.76,0,0,0-11.65-7.66l1.63-8.48a5,5,0,0,0-4-5.82l-22-4.2a5,5,0,0,0-3.72.78,5,5,0,0,0-2.1,3.18L192.08,100a58.59,58.59,0,0,0-13.65,2.84l-4.86-7.15a5,5,0,0,0-6.91-1.32L148.15,107a5,5,0,0,0-1.32,6.9l4.87,7.16A57.82,57.82,0,0,0,144,132.69Zm16,9.15a49.16,49.16,0,0,1,10.06-15.29,5,5,0,0,0,.54-6.25l-4.26-6.26,10.27-7,4.26,6.27a5,5,0,0,0,6,1.8,49.12,49.12,0,0,1,17.9-3.72,5,5,0,0,0,4.81-4l1.42-7.43,12.2,2.33-1.42,7.43a5,5,0,0,0,3,5.52,49.12,49.12,0,0,1,15.28,10.06,5,5,0,0,0,6.26.53l6.26-4.25,7,10.27-6.26,4.26a5,5,0,0,0-1.81,6,49,49,0,0,1,3.73,17.91,5,5,0,0,0,4,4.81l7.43,1.41-2.33,12.21-7.43-1.42a5,5,0,0,0-5.53,3,49,49,0,0,1-10,15.29,5,5,0,0,0-.54,6.25l4.26,6.27-10.28,7-4.26-6.27a5,5,0,0,0-6-1.8,49.06,49.06,0,0,1-17.92,3.72,5,5,0,0,0-4.8,4l-1.41,7.42L179.71,218l1.42-7.43a5,5,0,0,0-3-5.53,48.91,48.91,0,0,1-15.28-10.05,5,5,0,0,0-6.25-.54l-6.27,4.26-7-10.28,6.27-4.25a5,5,0,0,0,1.81-6,49.07,49.07,0,0,1-3.73-17.92,5,5,0,0,0-4-4.8L136.24,154l2.33-12.2,7.43,1.41A5,5,0,0,0,151.52,140.22Z"/><path class="cls-1" d="M190.52,194.41h0a35.75,35.75,0,0,0,13.4-70.24,35.75,35.75,0,1,0-13.4,70.24Zm-18.64-39.95a25.82,25.82,0,0,1,25.29-21,26.21,26.21,0,0,1,4.89.47,25.8,25.8,0,0,1-9.67,50.69h0a25.79,25.79,0,0,1-20.51-30.18Z"/><path class="cls-1" d="M3.23,92.91a5,5,0,0,0,5.63,4.22l8.55-1.23a58.73,58.73,0,0,0,7.12,12l-5.18,6.92a5,5,0,0,0,1,7l17.9,13.41a5,5,0,0,0,7-1l5.18-6.92a59.61,59.61,0,0,0,13.51,3.46l1.22,8.55a5,5,0,0,0,4.93,4.26,4.12,4.12,0,0,0,.7-.05l22.15-3.18a5,5,0,0,0,4.22-5.63l-1.23-8.55a58.73,58.73,0,0,0,12-7.12l6.92,5.18a5,5,0,0,0,7-1l13.41-17.91a5,5,0,0,0-1-7l-6.92-5.19a59,59,0,0,0,3.46-13.5l8.55-1.23a5,5,0,0,0,4.21-5.63L140.3,50.62a5,5,0,0,0-5.63-4.21l-8.55,1.22a58.68,58.68,0,0,0-7.11-12l5.18-6.92a5,5,0,0,0-1-7L105.28,8.35a5,5,0,0,0-7,1l-5.19,6.93a58.49,58.49,0,0,0-13.5-3.46L78.4,4.27A5,5,0,0,0,72.77.05L50.63,3.23a5,5,0,0,0-4.22,5.63l1.23,8.55a58.8,58.8,0,0,0-12,7.12l-6.92-5.19a5,5,0,0,0-7,1L8.36,38.25a5,5,0,0,0,1,7l6.93,5.18a58.49,58.49,0,0,0-3.46,13.5L4.27,65.13A5,5,0,0,0,.05,70.76ZM32.81,34.83a5,5,0,0,0,6.27-.25,49,49,0,0,1,15.74-9.34A5,5,0,0,0,58,19.85L57,12.37,69.27,10.6l1.07,7.49A5,5,0,0,0,75,22.35a49,49,0,0,1,17.72,4.54,5,5,0,0,0,6.09-1.53l4.54-6.06,9.94,7.45-4.54,6.06a5,5,0,0,0,.25,6.27,49.21,49.21,0,0,1,9.35,15.73A5,5,0,0,0,123.68,58L131.17,57l1.76,12.3-7.48,1.08A5,5,0,0,0,121.18,75a48.93,48.93,0,0,1-4.53,17.72,5,5,0,0,0,1.52,6.09l6.06,4.54-7.44,9.94-6.07-4.54a5,5,0,0,0-6.27.25,49,49,0,0,1-15.73,9.34,5,5,0,0,0-3.23,5.38l1.08,7.49-12.3,1.77-1.07-7.49a5,5,0,0,0-4.61-4.26,49,49,0,0,1-17.73-4.54,5,5,0,0,0-2.1-.47,5,5,0,0,0-4,2l-4.54,6.06-10-7.45,4.54-6.06a5,5,0,0,0-.25-6.27,49.29,49.29,0,0,1-9.34-15.73,5,5,0,0,0-5.38-3.23l-7.49,1.08L10.6,74.27l7.49-1.07a5,5,0,0,0,4.26-4.62,49,49,0,0,1,4.54-17.72,5,5,0,0,0-1.52-6.09L19.3,40.23l7.45-9.94Z"/><path class="cls-1" d="M71.74,107.52a36.9,36.9,0,0,0,5.11-.36,35.78,35.78,0,1,0-5.11.36ZM97.31,68.1A25.82,25.82,0,1,1,71.79,46,25.84,25.84,0,0,1,97.31,68.1Z"/></g></g></svg>