<svg xmlns="http://www.w3.org/2000/svg" viewBox="0 0 241 223.15"><defs><style>.cls-1{fill:#fff;}</style></defs><title>Asset 3</title><g id="Layer_2" data-name="Layer 2"><g id="Layer_1-2" data-name="Layer 1"><path class="cls-1" d="M224.84,41.3a4,4,0,0,0-.74-1.12l-.24-.26a6.31,6.31,0,0,0-6.2-1.82A6.47,6.47,0,0,0,213,42.75a10.94,10.94,0,0,1-14.21,7.55c-4.16-1.45-7-5.22-7.76-10.32a2.38,2.38,0,0,1,0-.8c1.21-5.47,4.62-9.11,9.34-10a6.47,6.47,0,0,0,5-4.32A6.29,6.29,0,0,0,204,18.62L188.44,2A6.44,6.44,0,0,0,185.21.1a4.59,4.59,0,0,0-1-.1,6.42,6.42,0,0,0-4.17,1.66L165.25,15.15a18.26,18.26,0,0,0-3.56-5.45,19,19,0,0,0-26.43-1.14,18.88,18.88,0,0,0,4.25,30.33L124.89,52.53a4.74,4.74,0,0,0-.72.85,6.38,6.38,0,0,0-1.3,3.21,4.1,4.1,0,0,0,0,1,6.31,6.31,0,0,0,1.59,3.36l15.34,16.83a6.31,6.31,0,0,0,6.14,1.9,6.49,6.49,0,0,0,4.71-4.62c1.24-4.63,5.14-7.74,10.68-8.5a2.38,2.38,0,0,1,.8,0c5,1.18,8.56,4.3,9.68,8.58a10.94,10.94,0,0,1-8.67,13.54,6.48,6.48,0,0,0-5,4.28,6.35,6.35,0,0,0,1.32,6.33l.23.25a3.71,3.71,0,0,0,1.06.83l14.69,15.74a6.37,6.37,0,0,0,3.91,2l.48,0a4.93,4.93,0,0,0,.55,0,6.95,6.95,0,0,0,3.4-1.6l16.05-14.63a3.35,3.35,0,0,0,.53-.6,6.45,6.45,0,0,0,1-5.63,6.22,6.22,0,0,0-3.78-4.06A10.94,10.94,0,0,1,194.47,73l.29-.27a11.23,11.23,0,0,1,8-3.3,10.93,10.93,0,0,1,10.37,7.89,6.2,6.2,0,0,0,3.74,4.09,6.49,6.49,0,0,0,5.69-.51,4.28,4.28,0,0,0,.64-.48L239,65.55a6.41,6.41,0,0,0,1.85-3.2,3.82,3.82,0,0,0,.11-1.06,6.35,6.35,0,0,0-1.66-4.07Zm-5,31.35a19,19,0,0,0-3.44-5.19A18.87,18.87,0,0,0,189.25,67a18.85,18.85,0,0,0-1.74,27.08,19.09,19.09,0,0,0,4.9,3.86l-12.5,11.39L167.29,95.8A18.85,18.85,0,0,0,179.5,73.17c-1.85-7.11-7.66-12.46-15.54-14.3a10,10,0,0,0-3.67-.17c-7.75,1.08-13.7,5.4-16.39,11.77L131.66,57.05,146.17,43.5a6.13,6.13,0,0,0,1.47-2,6.41,6.41,0,0,0,.48-5.16,6.23,6.23,0,0,0-3.72-3.9,10.92,10.92,0,0,1-3.77-18,11,11,0,0,1,15.28.71,10.86,10.86,0,0,1,2.49,4.39,6.23,6.23,0,0,0,3.59,4,6.38,6.38,0,0,0,5.17-.07,6.21,6.21,0,0,0,2.12-1.27L184,8.79l12.4,13.29c-6.57,2.17-11.37,7.75-13.06,15.39a10.27,10.27,0,0,0-.13,3.67c1.2,8,6.05,14.22,13,16.64a18.85,18.85,0,0,0,23.54-10.33l12.46,13.67Z"/><path class="cls-1" d="M25.45,216.8a6.4,6.4,0,0,0,6.4,6.35h0l73.65-.44a3.83,3.83,0,0,0,.58-.07,6.32,6.32,0,0,0,2.51.51l22.85-.13a3.46,3.46,0,0,0,.78-.09,6.45,6.45,0,0,0,4.47-3.51,6.27,6.27,0,0,0-.08-5.6c-1.16-2.27-2.51-6.92,1.42-12.69a2.09,2.09,0,0,1,.55-.56,13.67,13.67,0,0,1,7.79-2.66,11,11,0,0,1,10.95,10.89,10.84,10.84,0,0,1-1.14,4.92,6.22,6.22,0,0,0,0,5.56,6.49,6.49,0,0,0,4.52,3.48,4.07,4.07,0,0,0,.79.08l21.7-.13a6.38,6.38,0,0,0,6.37-6.44l-.13-22.68a6.33,6.33,0,0,0-6.39-6.34,6.53,6.53,0,0,0-3.53,1A10.93,10.93,0,0,1,164,184.18c-2.06-3.88-1.58-8.56,1.32-12.83a1.92,1.92,0,0,1,.55-.55,13.64,13.64,0,0,1,7.82-2.68,10.85,10.85,0,0,1,5.81,1.67,6.59,6.59,0,0,0,8-.86,6.26,6.26,0,0,0,1.82-4.48l-.14-22.78a6.42,6.42,0,0,0-6.43-6.36l-19.48.12a18.89,18.89,0,0,0-17.86-25,21.61,21.61,0,0,0-12.18,4,21.08,21.08,0,0,0,1.6-2.52c3.37-6.51,2.64-14.35-2-21a10,10,0,0,0-2.6-2.59c-5.81-4-12.64-5-18.52-2.89L111.59,66a6.42,6.42,0,0,0-6.44-6.36l-19.53.11c2.15-6,1.09-12.69-3.06-18.63A10.21,10.21,0,0,0,80,38.54,21.65,21.65,0,0,0,67.84,34.6h0a18.88,18.88,0,0,0-18.88,19A19.12,19.12,0,0,0,50.09,60l-19.54.11a6.4,6.4,0,0,0-6.36,6.44l.14,22.84a4.15,4.15,0,0,0,.08.79,6.41,6.41,0,0,0,6.24,5.09,6.26,6.26,0,0,0,2.87-.69c3.87-2,8.45-1.48,12.69,1.41a2.29,2.29,0,0,1,.57.55c2.94,4.25,3.46,8.92,1.43,12.83a11,11,0,0,1-9.73,5.91,10.81,10.81,0,0,1-4.88-1.15,6.11,6.11,0,0,0-2.77-.66,6.41,6.41,0,0,0-6.25,5.18,4.15,4.15,0,0,0-.07.79l.13,21.71a3.71,3.71,0,0,0,.4,1.67c0,.1,0,.19,0,.29l.11,18.66c-6-2.15-12.7-1.09-18.63,3.06a10,10,0,0,0-2.56,2.6c-4.54,6.69-5.19,14.55-1.73,21A18.86,18.86,0,0,0,19,198.4a19.12,19.12,0,0,0,6.36-1.15Zm109.92-76.33a6.34,6.34,0,0,0,.23-6.2c-1.16-2.26-2.51-6.91,1.41-12.67a2.34,2.34,0,0,1,.56-.57,13.62,13.62,0,0,1,7.79-2.66,11,11,0,0,1,9.81,15.82,6.23,6.23,0,0,0,.28,6.11,6.4,6.4,0,0,0,5.51,3.06l20.26-.12.11,18.6c-6.22-2.79-13.74-1.92-20,2.45a10,10,0,0,0-2.59,2.61c-4.53,6.68-5.19,14.52-1.77,21a18.86,18.86,0,0,0,24.59,8.31l.11,18.6-17.38.1A18.85,18.85,0,0,0,146.4,190a21.66,21.66,0,0,0-12.3,4.07,10.2,10.2,0,0,0-2.59,2.61c-4,5.9-5,12.5-2.92,18.45l-18.5.1L110,194.88a6.41,6.41,0,0,0-6.38-6.38,6.34,6.34,0,0,0-2.92.72,10.74,10.74,0,0,1-5.08,1.26,10.91,10.91,0,0,1-9.68-5.83c-2.06-3.88-1.59-8.56,1.29-12.81a2.1,2.1,0,0,1,.55-.56c4.26-3,8.92-3.48,12.77-1.53a6.45,6.45,0,0,0,7.41-1.19,6.29,6.29,0,0,0,1.85-4.55l-.12-20.34,20.28-.13A6.34,6.34,0,0,0,135.37,140.47Zm-7.8-4.83-15.56.09-.09-14.64a18.8,18.8,0,0,0,18.21-3.39C126.4,123.48,125.49,129.87,127.57,135.64Zm-89-12.49A18.83,18.83,0,0,0,55.24,113c3.38-6.51,2.65-14.35-2-21a10.32,10.32,0,0,0-2.6-2.59c-5.82-4-12.6-5-18.45-2.91L32.12,68l20.35-.12a6.38,6.38,0,0,0,5.47-3.13,6.22,6.22,0,0,0,.18-6.16,11,11,0,0,1,9.7-16h0a13.66,13.66,0,0,1,7.66,2.56,2.26,2.26,0,0,1,.56.55c3,4.23,3.51,8.88,1.52,12.78a6.32,6.32,0,0,0,.25,6.2,6.38,6.38,0,0,0,5.5,3.06l20.35-.12.12,20.27a6.37,6.37,0,0,0,9.27,5.66c3.83-2,8.44-1.48,12.68,1.42a2.25,2.25,0,0,1,.56.55c2.94,4.24,3.47,8.92,1.44,12.83a11,11,0,0,1-9.73,5.91,10.63,10.63,0,0,1-4.83-1.13,6.38,6.38,0,0,0-9.21,5.78l.12,18.48a6.22,6.22,0,0,0-1.07,1.16h0c-.15.2-.27.41-.4.62l-19.46.12a2.34,2.34,0,0,1-2.09-1.2,2.49,2.49,0,0,1,.09-2.54c3.4-5.39,3-12.12-1.11-18a6.67,6.67,0,0,0-1.56-1.53,17.57,17.57,0,0,0-10-3.27A14.9,14.9,0,0,0,56,135.58a2.55,2.55,0,0,1,.12,2.57A2.39,2.39,0,0,1,54,139.4l-21.47.13-.09-17.37A18.92,18.92,0,0,0,38.6,123.15ZM18.92,190.48a11.12,11.12,0,0,1-9.74-5.8c-2.07-3.89-1.6-8.58,1.3-12.86a2.13,2.13,0,0,1,.54-.54c4.22-2.95,8.88-3.51,12.78-1.52A6.38,6.38,0,0,0,33.05,164L33,147.45l21.11-.12a10.36,10.36,0,0,0,8.59-16,7,7,0,0,1-1.09-3.71,7,7,0,0,1,2-5c2.52-2.54,6.5-2.73,10.17-.35,1.3,2,2.9,5.52.72,9a10.31,10.31,0,0,0,8.72,15.89l18.56-.11.09,14.69c-6-2.1-12.82-1-18.63,3.06a10,10,0,0,0-2.56,2.59c-4.53,6.68-5.18,14.52-1.75,21a18.9,18.9,0,0,0,16.78,10,18.69,18.69,0,0,0,6.37-1.15l.1,17a4.83,4.83,0,0,0-.43.58l-68.37.4-.12-20.34a6.4,6.4,0,0,0-3.14-5.48,6.24,6.24,0,0,0-6.16-.18A10.71,10.71,0,0,1,18.92,190.48Z"/></g></g></svg>