<svg xmlns="http://www.w3.org/2000/svg" viewBox="0 0 232 235.62"><defs><style>.cls-1{fill:#fff;}</style></defs><title>Asset 2</title><g id="Layer_2" data-name="Layer 2"><g id="Layer_1-2" data-name="Layer 1"><path class="cls-1" d="M203.88,0a15.46,15.46,0,0,0-15.44,15.44V25.83a23.53,23.53,0,0,0-38,17.08H117.78A23.55,23.55,0,0,0,75.23,30.53a23.49,23.49,0,0,0-33.47-4.71V15.44a15.45,15.45,0,0,0-30.89,0V193.6a22.67,22.67,0,0,0,11.82,42H209.32a22.67,22.67,0,0,0,10-43V15.44A15.46,15.46,0,0,0,203.88,0Zm-6.3,95.16V15.44a6.3,6.3,0,0,1,12.6,0V190.29c-.29,0-.57,0-.86,0H197.58ZM174,30a14.46,14.46,0,1,1-14.45,14.45A14.47,14.47,0,0,1,174,30ZM94.26,30A14.46,14.46,0,1,1,79.8,44.43,14.47,14.47,0,0,1,94.26,30Zm-19,28.35a23.55,23.55,0,0,0,42.4-10.85h33A23.53,23.53,0,0,0,188.44,63V76.56a23.53,23.53,0,0,0-35.3,7.56,23.57,23.57,0,0,0-44.35,9.52h-67V63a23.47,23.47,0,0,0,33.47-4.71Zm57.08,116.6a23.63,23.63,0,0,0,23.48-21.32h32.65v36.64H41.76V169.94a23.38,23.38,0,0,0,14.45,5,23.63,23.63,0,0,0,23.48-21.32h29.14A23.62,23.62,0,0,0,132.31,174.93Zm-14.46-23.6a14.46,14.46,0,1,1,14.46,14.46A14.47,14.47,0,0,1,117.85,151.33ZM155.79,149a23.59,23.59,0,0,0-47,0H79.69a23.55,23.55,0,0,0-37.93-16.32V98.21h67.17a23.57,23.57,0,0,0,44.21,8,23.53,23.53,0,0,0,35.3,7.56V149ZM117.85,95.16a14.46,14.46,0,1,1,14.46,14.45A14.47,14.47,0,0,1,117.85,95.16ZM174,109.61a14.45,14.45,0,1,1,14.46-14.45A14.46,14.46,0,0,1,174,109.61ZM56.21,30A14.47,14.47,0,0,1,70.66,44.42h0A14.46,14.46,0,1,1,56.21,30Zm0,106.9a14.46,14.46,0,1,1-14.46,14.45A14.46,14.46,0,0,1,56.21,136.88ZM20,15.44a6.3,6.3,0,1,1,12.6,0V190.25H22.69a23.65,23.65,0,0,0-2.68.17Zm202.85,197.5a13.56,13.56,0,0,1-13.54,13.54H22.69a13.55,13.55,0,1,1,0-27.09H209.32A13.57,13.57,0,0,1,222.86,212.94Z"/></g></g></svg>