<svg xmlns="http://www.w3.org/2000/svg" viewBox="0 0 167 205.89"><defs><style>.cls-1{fill:#fff;}</style></defs><title>Asset 7</title><g id="Layer_2" data-name="Layer 2"><g id="Layer_1-2" data-name="Layer 1"><path class="cls-1" d="M163.91,57.79a12.21,12.21,0,0,1-3.1,7.52,8.43,8.43,0,0,1,3.1,2.64A8.35,8.35,0,0,1,167,65.31,12.17,12.17,0,0,1,163.91,57.79Z"/><path class="cls-1" d="M163.91,203.71a1.1,1.1,0,0,0,1.1-1.1V67.34a1.1,1.1,0,1,0-2.2,0V202.61A1.1,1.1,0,0,0,163.91,203.71Z"/><path class="cls-1" d="M166.85,69.43a.9.9,0,0,1-.9.9h-4.08a.9.9,0,0,1-.91-.9h0a.9.9,0,0,1,.91-.91H166a.9.9,0,0,1,.9.91Z"/><path class="cls-1" d="M165.49,58.25a1.59,1.59,0,1,1-1.58-1.59A1.59,1.59,0,0,1,165.49,58.25Z"/><path class="cls-1" d="M161.51,92.9A1.06,1.06,0,0,0,162.57,94H165A1.06,1.06,0,0,0,166,92.9h0A1.06,1.06,0,0,0,165,91.84h-2.41a1.06,1.06,0,0,0-1.06,1.06Z"/><path class="cls-1" d="M161.51,97.64a1.05,1.05,0,0,0,1.06,1H165a1.05,1.05,0,0,0,1.06-1h0A1.05,1.05,0,0,0,165,96.58h-2.41a1.05,1.05,0,0,0-1.06,1.06Z"/><path class="cls-1" d="M161.51,148.44a1.06,1.06,0,0,0,1.06,1.06H165a1.06,1.06,0,0,0,1.06-1.06h0a1.06,1.06,0,0,0-1.06-1.06h-2.41a1.06,1.06,0,0,0-1.06,1.06Z"/><path class="cls-1" d="M161.51,153.18a1.05,1.05,0,0,0,1.06,1H165a1.05,1.05,0,0,0,1.06-1h0a1.05,1.05,0,0,0-1.06-1.06h-2.41a1.05,1.05,0,0,0-1.06,1.06Z"/><path class="cls-1" d="M163.91,75.56a1.1,1.1,0,0,0,.78-1.87A111.84,111.84,0,0,0,143,57.63c-12.4-7.16-31.91-15.39-54.43-14a1.1,1.1,0,1,0,.14,2.19c42.08-2.68,74.15,29.05,74.47,29.37A1.1,1.1,0,0,0,163.91,75.56Z"/><path class="cls-1" d="M88.59,205.89a1.1,1.1,0,0,0,1.1-1.1V4.09a1.1,1.1,0,0,0-2.2,0v200.7A1.1,1.1,0,0,0,88.59,205.89Z"/><path class="cls-1" d="M88.59,199.76h75.19a1.1,1.1,0,0,0,0-2.2H88.59a1.1,1.1,0,0,0,0,2.2Z"/><path class="cls-1" d="M88.59,146.21h75.19a.83.83,0,0,0,.82-.83.82.82,0,0,0-.82-.82H88.59a.82.82,0,0,0-.83.82A.83.83,0,0,0,88.59,146.21Z"/><path class="cls-1" d="M88.59,137.77h75.19a.82.82,0,1,0,0-1.64H88.59a.82.82,0,1,0,0,1.64Z"/><path class="cls-1" d="M121.08,140.72A4.32,4.32,0,1,1,125.4,145,4.33,4.33,0,0,1,121.08,140.72Zm1.1,0a3.22,3.22,0,1,0,3.22-3.22A3.22,3.22,0,0,0,122.18,140.72Z"/><path class="cls-1" d="M133.62,145a4.3,4.3,0,0,0,.87-.1,3,3,0,0,0,2.13-1.59,2.69,2.69,0,0,0-2.35-4,1.49,1.49,0,0,0-1.41.75,1.35,1.35,0,0,0,.12,1.41.88.88,0,0,0,.93.32,1.38,1.38,0,0,0,.9-.59,1.15,1.15,0,0,0,.11-.84.28.28,0,0,0-.34-.19.27.27,0,0,0-.19.34.66.66,0,0,1-.06.42.87.87,0,0,1-.55.33.35.35,0,0,1-.37-.13.84.84,0,0,1-.06-.83.89.89,0,0,1,.9-.44,2.15,2.15,0,0,1,1.88,3.16,2.51,2.51,0,0,1-1.76,1.3,3.81,3.81,0,0,1-3.17-.79,4,4,0,0,1-.92-4,2.88,2.88,0,0,1,2.7-2.11c3.59-.27,8.35,1,15,3.89,6.15,2.71,8.06,3.48,11.12,3.19a4.32,4.32,0,0,0,3.5-2.42,3.49,3.49,0,0,0,0-3.42,4,4,0,0,0-3.66-1.71,2.53,2.53,0,0,0-2.22,1.54,2.78,2.78,0,0,0,.22,2.61,2.68,2.68,0,0,0,2.12,1.15,2,2,0,0,0,1.83-1.11,1.6,1.6,0,0,0-.56-1.76,1.47,1.47,0,0,0-1.46-.41,1.2,1.2,0,0,0-.79.91,1.29,1.29,0,0,0,.52,1.22.27.27,0,0,0,.39,0,.29.29,0,0,0,0-.39.72.72,0,0,1-.32-.7.59.59,0,0,1,.41-.48.93.93,0,0,1,.92.29,1,1,0,0,1,.41,1.16,1.39,1.39,0,0,1-1.31.76,2.08,2.08,0,0,1-1.66-.92,2.13,2.13,0,0,1-.16-2.09,2,2,0,0,1,1.75-1.19,3.43,3.43,0,0,1,3.14,1.45,3,3,0,0,1,0,2.89A3.77,3.77,0,0,1,159,144c-2.94.28-4.67-.42-10.85-3.15-6.7-3-11.55-4.2-15.23-3.92a3.41,3.41,0,0,0-3.19,2.48,4.5,4.5,0,0,0,1.1,4.58A4.42,4.42,0,0,0,133.62,145Z"/><path class="cls-1" d="M138.94,145H139a.27.27,0,0,0,.19-.34,2.2,2.2,0,0,1,.36-1.84c.6-.8,1.79-1.23,3.46-1.25,4-.05,10.12,2,10.18,2a.27.27,0,0,0,.35-.17.28.28,0,0,0-.17-.35C153.12,143,147.12,141,143,141c-1.87,0-3.18.52-3.89,1.48a2.77,2.77,0,0,0-.45,2.32A.28.28,0,0,0,138.94,145Z"/><path class="cls-1" d="M155.92,144.44a.28.28,0,0,0,.26-.18.27.27,0,0,0-.16-.35c-.06,0-5-1.89-6.17-3.8a1.41,1.41,0,0,1-.15-1.55,3,3,0,0,1,2.81-.83.28.28,0,0,0,.31-.25.29.29,0,0,0-.25-.3,3.49,3.49,0,0,0-3.33,1.08,1.92,1.92,0,0,0,.13,2.13c1.23,2.07,6.24,4,6.45,4A.18.18,0,0,0,155.92,144.44Z"/><path class="cls-1" d="M117.83,145a4.42,4.42,0,0,0,2.77-1,4.5,4.5,0,0,0,1.1-4.58,3.41,3.41,0,0,0-3.19-2.48c-3.69-.28-8.53,1-15.24,3.92-6.17,2.73-7.9,3.43-10.84,3.15a3.77,3.77,0,0,1-3.06-2.11,3,3,0,0,1,0-2.89,3.43,3.43,0,0,1,3.14-1.45,2,2,0,0,1,1.75,1.19,2.13,2.13,0,0,1-.16,2.09,2.08,2.08,0,0,1-1.66.92,1.39,1.39,0,0,1-1.31-.76,1,1,0,0,1,.41-1.16.93.93,0,0,1,.92-.29.61.61,0,0,1,.41.48.72.72,0,0,1-.32.7.28.28,0,0,0,0,.39.27.27,0,0,0,.39,0,1.29,1.29,0,0,0,.52-1.22,1.2,1.2,0,0,0-.79-.91,1.47,1.47,0,0,0-1.46.41,1.6,1.6,0,0,0-.56,1.76,2,2,0,0,0,1.83,1.11,2.68,2.68,0,0,0,2.12-1.15,2.78,2.78,0,0,0,.22-2.61A2.53,2.53,0,0,0,92.59,137a4,4,0,0,0-3.66,1.71,3.49,3.49,0,0,0-.05,3.42,4.32,4.32,0,0,0,3.5,2.42c3.06.29,5-.48,11.12-3.19,6.62-2.93,11.37-4.16,15-3.89a2.88,2.88,0,0,1,2.7,2.11,4,4,0,0,1-.92,4,3.81,3.81,0,0,1-3.17.79,2.51,2.51,0,0,1-1.76-1.3,2.15,2.15,0,0,1,1.88-3.16.89.89,0,0,1,.9.44.84.84,0,0,1-.06.83.35.35,0,0,1-.37.13.83.83,0,0,1-.55-.34.56.56,0,0,1-.06-.41.27.27,0,0,0-.19-.34.28.28,0,0,0-.34.19,1.15,1.15,0,0,0,.11.84,1.38,1.38,0,0,0,.9.59.88.88,0,0,0,.93-.32,1.35,1.35,0,0,0,.12-1.41,1.45,1.45,0,0,0-1.41-.75,2.69,2.69,0,0,0-2.35,4,3,3,0,0,0,2.13,1.59A3.69,3.69,0,0,0,117.83,145Z"/><path class="cls-1" d="M112.51,145a.28.28,0,0,0,.27-.19,2.77,2.77,0,0,0-.45-2.32c-.71-1-2-1.46-3.89-1.48h-.14c-4.12,0-10,2-10.23,2.06a.28.28,0,0,0-.17.35.27.27,0,0,0,.35.17c.06,0,6-2,10-2h.13c1.67,0,2.86.45,3.46,1.25a2.2,2.2,0,0,1,.36,1.84.27.27,0,0,0,.19.34Z"/><path class="cls-1" d="M95.53,144.44a.18.18,0,0,0,.1,0c.21-.08,5.22-2,6.44-4a1.91,1.91,0,0,0,.14-2.13,3.5,3.5,0,0,0-3.33-1.08.28.28,0,1,0,.06.55,3,3,0,0,1,2.81.83,1.41,1.41,0,0,1-.15,1.55c-1.13,1.91-6.11,3.78-6.16,3.8a.27.27,0,0,0-.17.35A.28.28,0,0,0,95.53,144.44Z"/><path class="cls-1" d="M158.49,136a6.38,6.38,0,0,0,.86-.05,3.58,3.58,0,0,0,3.35-3,3.81,3.81,0,0,0-1.52-3.92,2.08,2.08,0,0,0-2.51.32,1.92,1.92,0,0,0-.56,2,1.3,1.3,0,0,0,1.45.71,1.05,1.05,0,0,0-.07-2.07.29.29,0,0,0-.29.27.27.27,0,0,0,.26.28c.09,0,.38.07.38.56a.46.46,0,0,1-.4.42.72.72,0,0,1-.83-.41,1.36,1.36,0,0,1,.45-1.38,1.52,1.52,0,0,1,1.87-.23,3.3,3.3,0,0,1,1.23,3.34,3,3,0,0,1-2.88,2.55,3.8,3.8,0,0,1-3.12-.72c-.91-.8-1.37-2.24-1.37-4.27V76.9c0-.17.28-4.45,3.58-4.45h0a3.51,3.51,0,0,1,2.82,1,3.76,3.76,0,0,1,.6,3,2.11,2.11,0,0,1-1.55,1.73,1.72,1.72,0,0,1-1.81-.6,1.18,1.18,0,0,1-.13-1.52,1.23,1.23,0,0,1,1.54-.25c.35.16.54.38.56.63a.7.7,0,0,1-.35.63.52.52,0,0,1-.55,0,.28.28,0,0,0-.38.1.29.29,0,0,0,.11.38,1.1,1.1,0,0,0,1.12-.05,1.3,1.3,0,0,0,.6-1.14,1.32,1.32,0,0,0-.89-1.09,1.79,1.79,0,0,0-2.19.4A1.75,1.75,0,0,0,158,78a2.26,2.26,0,0,0,2.37.79,2.62,2.62,0,0,0,2-2.17,4.18,4.18,0,0,0-.72-3.45,4,4,0,0,0-3.24-1.25h0c-3.82,0-4.13,4.94-4.13,5v53.49c0,2.2.52,3.77,1.55,4.68A3.94,3.94,0,0,0,158.49,136Z"/><path class="cls-1" d="M150.51,136a6.38,6.38,0,0,0,.86-.05,3.58,3.58,0,0,0,3.35-3A3.81,3.81,0,0,0,153.2,129a2.08,2.08,0,0,0-2.51.32,1.92,1.92,0,0,0-.56,2,1.3,1.3,0,0,0,1.45.71,1.05,1.05,0,0,0-.07-2.07.29.29,0,0,0-.29.27.27.27,0,0,0,.26.28c.09,0,.39.07.39.56,0,.24-.21.37-.41.42a.72.72,0,0,1-.83-.41,1.36,1.36,0,0,1,.45-1.38,1.52,1.52,0,0,1,1.87-.23,3.3,3.3,0,0,1,1.23,3.34,3,3,0,0,1-2.88,2.55,3.8,3.8,0,0,1-3.12-.72c-.91-.8-1.37-2.24-1.37-4.27V71c0-.16.28-4.45,3.58-4.45h0a3.51,3.51,0,0,1,2.82,1.06,3.77,3.77,0,0,1,.6,3,2.1,2.1,0,0,1-1.55,1.73,1.71,1.71,0,0,1-1.81-.59,1.2,1.2,0,0,1-.13-1.53,1.25,1.25,0,0,1,1.54-.25.82.82,0,0,1,.56.64.72.72,0,0,1-.35.63.54.54,0,0,1-.55,0,.29.29,0,0,0-.38.11.28.28,0,0,0,.11.37,1.1,1.1,0,0,0,1.12,0,1.27,1.27,0,0,0,.6-1.13,1.33,1.33,0,0,0-.89-1.1,1.79,1.79,0,0,0-2.19.41A1.73,1.73,0,0,0,150,72a2.24,2.24,0,0,0,2.37.79,2.61,2.61,0,0,0,2-2.17,4.18,4.18,0,0,0-.72-3.45A4.06,4.06,0,0,0,150.4,66h0c-3.82,0-4.13,4.94-4.13,5v59.43c0,2.2.53,3.77,1.56,4.68A3.94,3.94,0,0,0,150.51,136Z"/><path class="cls-1" d="M117.63,124.62a6.55,6.55,0,0,0,.86-.06,3.57,3.57,0,0,0,3.35-3,3.82,3.82,0,0,0-1.52-3.92,2.08,2.08,0,0,0-2.51.32,1.92,1.92,0,0,0-.56,2,1.28,1.28,0,0,0,1.45.71,1,1,0,0,0-.07-2.06.28.28,0,0,0-.29.26.28.28,0,0,0,.26.29c.09,0,.38.06.38.55a.46.46,0,0,1-.4.42.73.73,0,0,1-.84-.4,1.4,1.4,0,0,1,.46-1.39,1.52,1.52,0,0,1,1.87-.23,3.3,3.3,0,0,1,1.23,3.34,3,3,0,0,1-2.88,2.56,3.83,3.83,0,0,1-3.12-.73c-.92-.8-1.38-2.24-1.38-4.27V67.12c0-.17.29-4.45,3.59-4.45h0a3.51,3.51,0,0,1,2.82,1,3.8,3.8,0,0,1,.6,3,2.11,2.11,0,0,1-1.55,1.73,1.69,1.69,0,0,1-1.81-.6,1.2,1.2,0,0,1-.14-1.52,1.24,1.24,0,0,1,1.54-.25c.36.16.55.38.57.63a.72.72,0,0,1-.35.63.53.53,0,0,1-.56,0,.27.27,0,1,0-.26.48,1.08,1.08,0,0,0,1.11-.05,1.27,1.27,0,0,0,.61-1.13,1.32,1.32,0,0,0-.89-1.1,1.8,1.8,0,0,0-2.2.4,1.77,1.77,0,0,0,.13,2.21,2.26,2.26,0,0,0,2.38.79,2.64,2.64,0,0,0,2-2.17,4.18,4.18,0,0,0-.72-3.45,4,4,0,0,0-3.24-1.25h0c-3.82,0-4.13,4.94-4.14,5V119c0,2.2.53,3.77,1.56,4.69A4,4,0,0,0,117.63,124.62Z"/><path class="cls-1" d="M149.23,78.84A2.21,2.21,0,0,0,151,78a1.75,1.75,0,0,0,.13-2.21,1.79,1.79,0,0,0-2.19-.4,1.32,1.32,0,0,0-.89,1.09,1.3,1.3,0,0,0,.6,1.14,1.1,1.1,0,0,0,1.12.05.29.29,0,0,0,.11-.38.28.28,0,0,0-.38-.1.52.52,0,0,1-.55,0,.7.7,0,0,1-.35-.63c0-.25.21-.47.57-.63a1.21,1.21,0,0,1,1.53.25,1.18,1.18,0,0,1-.13,1.52,1.72,1.72,0,0,1-1.81.6,2.11,2.11,0,0,1-1.55-1.73,3.8,3.8,0,0,1,.6-3,3.51,3.51,0,0,1,2.82-1h0c3.3,0,3.58,4.42,3.59,4.47a.27.27,0,1,0,.54,0s-.31-5-4.13-5h0a4,4,0,0,0-3.24,1.25,4.18,4.18,0,0,0-.72,3.45,2.64,2.64,0,0,0,2,2.17A2.44,2.44,0,0,0,149.23,78.84Z"/><path class="cls-1" d="M101.47,136a3.9,3.9,0,0,0,2.69-.91c1-.91,1.56-2.48,1.56-4.68V76.9c0-.06-.31-5-4.13-5h0a4,4,0,0,0-3.23,1.25,4.14,4.14,0,0,0-.72,3.45,2.63,2.63,0,0,0,1.95,2.17A2.27,2.27,0,0,0,102,78a1.76,1.76,0,0,0,.13-2.21,1.8,1.8,0,0,0-2.2-.4A1.32,1.32,0,0,0,99,76.46a1.3,1.3,0,0,0,.6,1.14,1.1,1.1,0,0,0,1.12.05.29.29,0,0,0,.11-.38.28.28,0,0,0-.38-.1.52.52,0,0,1-.55,0,.7.7,0,0,1-.35-.63c0-.25.21-.47.56-.63a1.23,1.23,0,0,1,1.54.25,1.18,1.18,0,0,1-.13,1.52,1.72,1.72,0,0,1-1.81.6,2.1,2.1,0,0,1-1.55-1.73,3.76,3.76,0,0,1,.6-3,3.51,3.51,0,0,1,2.82-1h0c3.3,0,3.58,4.42,3.58,4.47v53.45c0,2-.46,3.47-1.37,4.27a3.82,3.82,0,0,1-3.13.72,3,3,0,0,1-2.87-2.55A3.29,3.29,0,0,1,99,129.47a1.52,1.52,0,0,1,1.87.23,1.36,1.36,0,0,1,.45,1.38.72.72,0,0,1-.83.41c-.2-.05-.41-.18-.41-.42,0-.49.3-.55.39-.56a.28.28,0,0,0,.25-.29.28.28,0,0,0-.28-.26,1,1,0,0,0-.07,2.07,1.3,1.3,0,0,0,1.45-.71,1.9,1.9,0,0,0-.57-2,2.07,2.07,0,0,0-2.5-.32,3.83,3.83,0,0,0-1.53,3.92,3.6,3.6,0,0,0,3.36,3A6.38,6.38,0,0,0,101.47,136Z"/><path class="cls-1" d="M93.49,136a3.92,3.92,0,0,0,2.67-.9c1-.92,1.58-2.53,1.58-4.79V75.8c0-.06-.31-5.09-4.13-5.09h0A4.05,4.05,0,0,0,90.37,72a4.32,4.32,0,0,0-.73,3.54,2.66,2.66,0,0,0,2,2.21A2.25,2.25,0,0,0,94,76.9a1.69,1.69,0,0,0-2.07-2.65A1.33,1.33,0,0,0,91,75.37a1.27,1.27,0,0,0,.62,1.15,1,1,0,0,0,1.1,0,.28.28,0,0,0,.11-.37.28.28,0,0,0-.38-.11.5.5,0,0,1-.54,0,.73.73,0,0,1-.36-.65c0-.26.21-.49.56-.65a1.15,1.15,0,0,1,1.4,1.81,1.66,1.66,0,0,1-1.79.61,2.1,2.1,0,0,1-1.56-1.77,3.88,3.88,0,0,1,.61-3.08,3.52,3.52,0,0,1,2.81-1.06h0c3.3,0,3.58,4.51,3.58,4.56v54.45c0,2.09-.47,3.56-1.39,4.38a3.83,3.83,0,0,1-3.11.71,3,3,0,0,1-2.87-2.58c-.24-1.4.32-3,1.23-3.43a1.51,1.51,0,0,1,1.85.21,1.46,1.46,0,0,1,.47,1.44.73.73,0,0,1-.83.42.48.48,0,0,1-.41-.44c0-.54.34-.57.38-.57a.26.26,0,0,0,.26-.28.27.27,0,0,0-.28-.27,1.06,1.06,0,0,0-.06,2.09,1.25,1.25,0,0,0,1.44-.72,2,2,0,0,0-.59-2.07,2.05,2.05,0,0,0-2.48-.3c-1.12.57-1.81,2.37-1.52,4a3.62,3.62,0,0,0,3.34,3A6.53,6.53,0,0,0,93.49,136Z"/><path class="cls-1" d="M105.45,77h0a.27.27,0,0,0,.24-.3s-.47-4.72,1.37-6.76a2.76,2.76,0,0,1,2.16-.93,3.49,3.49,0,0,1,2.8,1.09,4,4,0,0,1,.69,3.21A2.11,2.11,0,0,1,111.19,75a1.71,1.71,0,0,1-1.81-.6,1.2,1.2,0,0,1-.14-1.52,1.24,1.24,0,0,1,1.54-.25c.36.16.55.38.57.63a.74.74,0,0,1-.35.63.54.54,0,0,1-.56,0,.27.27,0,1,0-.26.48,1.08,1.08,0,0,0,1.11,0,1.27,1.27,0,0,0,.61-1.13,1.32,1.32,0,0,0-.89-1.1,1.79,1.79,0,0,0-2.2.41,1.76,1.76,0,0,0,.13,2.2,2.26,2.26,0,0,0,2.38.79,2.65,2.65,0,0,0,2-2.17,4.46,4.46,0,0,0-.81-3.65,4,4,0,0,0-3.22-1.29,3.3,3.3,0,0,0-2.57,1.11c-2,2.22-1.53,7-1.51,7.19A.28.28,0,0,0,105.45,77Z"/><path class="cls-1" d="M138.64,136a7.47,7.47,0,0,0,6.39-3,8.49,8.49,0,0,0,1.09-7.65,5.67,5.67,0,0,0-4.36-3.74,5.57,5.57,0,0,0-5.19,1.5,4.68,4.68,0,0,0-.67,5.1,3.28,3.28,0,0,0,3.18,2,2.78,2.78,0,0,0,2.77-2.06,2.46,2.46,0,0,0-1.16-2.69,1.69,1.69,0,0,0-2.36.39,1.23,1.23,0,0,0,.22,1.7,1.4,1.4,0,0,0,1.55.25c.23-.11.56-.38.56-.61a.27.27,0,0,0-.28-.27.27.27,0,0,0-.25.18.84.84,0,0,1-.47.27.93.93,0,0,1-.77-.25.7.7,0,0,1-.11-1,1.16,1.16,0,0,1,1.64-.21,1.92,1.92,0,0,1,.9,2.09,2.26,2.26,0,0,1-2.28,1.63,2.71,2.71,0,0,1-2.65-1.66,4.12,4.12,0,0,1,.59-4.49,5,5,0,0,1,4.67-1.33,5.12,5.12,0,0,1,3.95,3.38,7.94,7.94,0,0,1-1,7.15,7.09,7.09,0,0,1-6.34,2.73c-7.75-.28-8-10.92-7.92-14.18.18-5.89,0-58.57,0-59.1,0-.2.15-5,4-5.2a4.84,4.84,0,0,1,3.93,1.29,4.78,4.78,0,0,1,1.18,3.83,2.15,2.15,0,0,1-1.78,2,2,2,0,0,1-2.14-1,1.55,1.55,0,0,1,0-1.73,1.51,1.51,0,0,1,1.64-.18,1,1,0,0,1,.71,1.25.69.69,0,0,1-.94.43.28.28,0,0,0-.18.52,1.24,1.24,0,0,0,1.64-.77,1.54,1.54,0,0,0-1-2,2,2,0,0,0-2.23.33,2.07,2.07,0,0,0-.09,2.34,2.49,2.49,0,0,0,2.73,1.29A2.67,2.67,0,0,0,140,62.12a5,5,0,0,0-5.7-5.73c-4.35.26-4.51,5.69-4.52,5.74,0,.54.19,53.21,0,59.1-.1,3.38.2,14.44,8.46,14.73Z"/><path class="cls-1" d="M133.88,124.62a5.11,5.11,0,0,0,2-.43c3.5-1.49,2.64-6.46,2.6-6.67,0-.38.08-43.63,0-49.57a6.1,6.1,0,0,1,3.17-5.88,4.29,4.29,0,0,1,4.52.24,4,4,0,0,1,1.49,3.88,3.17,3.17,0,0,1-1.94,2.56,2.81,2.81,0,0,1-3-.88,2,2,0,0,1-.28-2.35c.58-1,1.34-1.18,1.87-1a.76.76,0,0,1,.56.79.6.6,0,0,1-.33.48.68.68,0,0,1-.53-.06.27.27,0,0,0-.37-.06.29.29,0,0,0-.06.4,1.09,1.09,0,0,0,1.83-.64,1.29,1.29,0,0,0-.91-1.42,2.07,2.07,0,0,0-2.54,1.23,2.55,2.55,0,0,0,.34,3,3.34,3.34,0,0,0,3.61,1,3.71,3.71,0,0,0,2.31-3,4.53,4.53,0,0,0-1.69-4.4,4.82,4.82,0,0,0-5.1-.3A6.71,6.71,0,0,0,137.89,68c.08,5.93,0,49.17,0,49.61,0,.1.83,4.8-2.27,6.12a3.58,3.58,0,0,1-3.78-.31,3.1,3.1,0,0,1-1.2-2.88,2.8,2.8,0,0,1,1.71-2.21,2.16,2.16,0,0,1,2.16.28,2,2,0,0,1,.82,2,1.65,1.65,0,0,1-1.27,1.28,1,1,0,0,1-1.28-1.34.56.56,0,0,1,.6-.27.27.27,0,0,0,.29-.26.28.28,0,0,0-.26-.29,1.1,1.1,0,0,0-1.12.56,1.59,1.59,0,0,0,1.91,2.13,2.22,2.22,0,0,0,1.67-1.7,2.61,2.61,0,0,0-1-2.54,2.71,2.71,0,0,0-2.7-.35,3.33,3.33,0,0,0-2.05,2.63,3.66,3.66,0,0,0,1.4,3.4A3.83,3.83,0,0,0,133.88,124.62Z"/><path class="cls-1" d="M132.36,67.62h.15A2.27,2.27,0,0,0,134.76,66a1.93,1.93,0,0,0-.85-2.15,1.61,1.61,0,0,0-1.65-.16,1.15,1.15,0,0,0-.64,1,.89.89,0,0,0,.44.77,1.14,1.14,0,0,0,1,.17,1,1,0,0,0,.6-.54.28.28,0,1,0-.5-.23.49.49,0,0,1-.27.25.66.66,0,0,1-.51-.12.33.33,0,0,1-.18-.29.62.62,0,0,1,.35-.47,1,1,0,0,1,1.09.14,1.35,1.35,0,0,1,.61,1.54,1.71,1.71,0,0,1-1.73,1.18,2,2,0,0,1-2.18-1.73.29.29,0,0,0-.31-.24.28.28,0,0,0-.24.31A2.61,2.61,0,0,0,132.36,67.62Z"/><path class="cls-1" d="M127.15,64.23a2.57,2.57,0,0,0,1.72-.69c1.41-1.25,2-3.83,1.43-6.58a6.46,6.46,0,0,0-3.55-4.68,6.21,6.21,0,0,0-5.56.07,3.36,3.36,0,0,0-1.9,3.25,4.88,4.88,0,0,0,2.6,4,3,3,0,0,0,3.36-.73,2,2,0,0,0,.35-2.33c-.58-1.09-1.47-1.27-2.1-1a.94.94,0,0,0-.54,1.2,1,1,0,0,0,.62.63.89.89,0,0,0,.69-.06.27.27,0,0,0,.11-.37.28.28,0,0,0-.37-.11.35.35,0,0,1-.26,0,.63.63,0,0,1-.29-.33c-.08-.19.08-.39.28-.49.36-.17.94-.09,1.37.73a1.45,1.45,0,0,1-.27,1.71,2.5,2.5,0,0,1-2.74.58,4.28,4.28,0,0,1-2.26-3.5,2.78,2.78,0,0,1,1.61-2.73,5.63,5.63,0,0,1,5.06-.06,5.84,5.84,0,0,1,3.26,4.28c.5,2.56,0,4.95-1.27,6.07a1.94,1.94,0,0,1-2,.45,1.39,1.39,0,0,1-1.06-1.8c.17-.52.65-1,1.19-.81s.75.6.67.9a.46.46,0,0,1-.49.38c-.24,0-.33-.14-.33-.19a.19.19,0,0,1,.19-.11.28.28,0,0,0,0-.55A.73.73,0,0,0,126,62c0,.29.16.65.77.78a1,1,0,0,0,1.13-.78,1.3,1.3,0,0,0-1-1.56A1.54,1.54,0,0,0,125,61.61a1.92,1.92,0,0,0,1.41,2.49A2.47,2.47,0,0,0,127.15,64.23Z"/><path class="cls-1" d="M114,136h.23a7.7,7.7,0,0,0,5.87-2.43c3-3.3,2.59-8.7,2.58-8.93s-.41-38,0-48.41c.28-7.31-.39-24.73-12.82-28.61-10.81-3.38-17.36,2.72-19.67,9a13.12,13.12,0,0,0,1.29,11,9.39,9.39,0,0,0,7.33,4.53c3.22.27,5.88-.49,7.71-2.21a8.43,8.43,0,0,0,2.53-6.27,7.67,7.67,0,0,0-3.2-5.87,5.48,5.48,0,0,0-5.1-.66,4.67,4.67,0,0,0-3.2,4.7,3.87,3.87,0,0,0,2.49,3.75,2.86,2.86,0,0,0,3.41-1.17,2,2,0,0,0-.5-2.55,2,2,0,0,0-2.72-.28,1.09,1.09,0,0,0-.15,1.52,1.42,1.42,0,0,0,1,.64,1.06,1.06,0,0,0,.78-.29.27.27,0,0,0,0-.39.27.27,0,0,0-.38,0,.58.58,0,0,1-.37.13.91.91,0,0,1-.59-.42.56.56,0,0,1,.08-.79c.39-.36,1.18-.42,2,.29a1.5,1.5,0,0,1,.38,1.88,2.33,2.33,0,0,1-2.78.9,3.32,3.32,0,0,1-2.09-3.25A4.07,4.07,0,0,1,101,57.63a5,5,0,0,1,4.6.6,7.09,7.09,0,0,1,3,5.43,7.89,7.89,0,0,1-2.36,5.85c-1.73,1.63-4.18,2.33-7.29,2.07A8.89,8.89,0,0,1,92,67.3a12.55,12.55,0,0,1-1.23-10.56c2.23-6,8.54-11.9,19-8.63,12.06,3.77,12.71,20.88,12.43,28.06-.41,10.4,0,48.08,0,48.46,0,.07.4,5.41-2.43,8.53a7.26,7.26,0,0,1-5.48,2.26c-4.42.07-6.41-1.9-7.29-3.56a7.64,7.64,0,0,1,.3-7.36,5.14,5.14,0,0,1,5-2.17,4.41,4.41,0,0,1,3.43,3.54c.55,2.09-.09,3.87-1.71,4.74a3,3,0,0,1-3.53-.26,2.18,2.18,0,0,1-.42-2.65,2.13,2.13,0,0,1,2.54-.68c.94.29,1.43.84,1.3,1.49a1.76,1.76,0,0,1-2,1.2.28.28,0,0,0-.29.25.27.27,0,0,0,.25.3,2.28,2.28,0,0,0,2.53-1.65c.14-.73-.22-1.67-1.68-2.12a2.63,2.63,0,0,0-3.17.92,2.71,2.71,0,0,0,.49,3.31,3.47,3.47,0,0,0,4.19.38c1.86-1,2.6-3,2-5.38a5,5,0,0,0-3.87-3.93,5.69,5.69,0,0,0-5.49,2.39,8.13,8.13,0,0,0-.33,7.94C107.4,133.89,109.47,136,114,136Z"/><path class="cls-1" d="M108.47,66.4a2.73,2.73,0,1,1,2.73,2.73A2.72,2.72,0,0,1,108.47,66.4Zm.55,0a2.18,2.18,0,1,0,2.18-2.17A2.18,2.18,0,0,0,109,66.4Z"/><path class="cls-1" d="M122.34,79.87a3.88,3.88,0,1,1,3.88,3.88A3.88,3.88,0,0,1,122.34,79.87Zm.55,0a3.33,3.33,0,1,0,3.33-3.33A3.34,3.34,0,0,0,122.89,79.87Z"/><path class="cls-1" d="M122.34,87.07A3.88,3.88,0,1,1,126.22,91,3.88,3.88,0,0,1,122.34,87.07Zm.55,0a3.33,3.33,0,1,0,3.33-3.32A3.34,3.34,0,0,0,122.89,87.07Z"/><path class="cls-1" d="M122.34,94.27a3.88,3.88,0,1,1,3.88,3.88A3.88,3.88,0,0,1,122.34,94.27Zm.55,0A3.33,3.33,0,1,0,126.22,91,3.34,3.34,0,0,0,122.89,94.27Z"/><path class="cls-1" d="M122.34,101.48a3.88,3.88,0,1,1,3.88,3.88A3.88,3.88,0,0,1,122.34,101.48Zm.55,0a3.33,3.33,0,1,0,3.33-3.33A3.34,3.34,0,0,0,122.89,101.48Z"/><path class="cls-1" d="M122.34,108.68a3.88,3.88,0,1,1,3.88,3.88A3.88,3.88,0,0,1,122.34,108.68Zm.55,0a3.33,3.33,0,1,0,3.33-3.32A3.34,3.34,0,0,0,122.89,108.68Z"/><path class="cls-1" d="M122.34,115.88a3.88,3.88,0,1,1,3.88,3.88A3.88,3.88,0,0,1,122.34,115.88Zm.55,0a3.33,3.33,0,1,0,3.33-3.32A3.34,3.34,0,0,0,122.89,115.88Z"/><path class="cls-1" d="M124.35,121.08a1.87,1.87,0,1,1,1.87,1.86A1.87,1.87,0,0,1,124.35,121.08Zm.55,0a1.32,1.32,0,1,0,1.32-1.32A1.32,1.32,0,0,0,124.9,121.08Z"/><path class="cls-1" d="M124.35,124.34a1.87,1.87,0,1,1,1.87,1.87A1.87,1.87,0,0,1,124.35,124.34Zm.55,0a1.32,1.32,0,1,0,1.32-1.31A1.32,1.32,0,0,0,124.9,124.34Z"/><path class="cls-1" d="M124.35,127.61a1.87,1.87,0,1,1,1.87,1.86A1.87,1.87,0,0,1,124.35,127.61Zm.55,0a1.32,1.32,0,1,0,1.32-1.32A1.32,1.32,0,0,0,124.9,127.61Z"/><path class="cls-1" d="M124.35,130.87a1.87,1.87,0,1,1,1.87,1.87A1.87,1.87,0,0,1,124.35,130.87Zm.55,0a1.32,1.32,0,1,0,1.32-1.32A1.32,1.32,0,0,0,124.9,130.87Z"/><path class="cls-1" d="M124.35,134.13a1.87,1.87,0,1,1,1.87,1.87A1.87,1.87,0,0,1,124.35,134.13Zm.55,0a1.32,1.32,0,1,0,1.32-1.31A1.32,1.32,0,0,0,124.9,134.13Z"/><path class="cls-1" d="M100,42.31a9.11,9.11,0,0,0,7.9-3.8c2.15-3.14,1.28-6-.25-7.54a5.39,5.39,0,0,0-6.57-1.11,3.59,3.59,0,0,0-1.47,4.91,3.37,3.37,0,0,0,4.59,1.31c.12-.06,2-1.19,1.44-3a2.28,2.28,0,0,0-2.16-1.63,2.24,2.24,0,0,0-2,1.92.55.55,0,1,0,1.07.27c.17-.69.52-1.07,1-1.09a1.18,1.18,0,0,1,1.08.85c.3,1-.86,1.69-.91,1.72a2.28,2.28,0,0,1-3.12-.9,2.51,2.51,0,0,1,1.11-3.43,4.27,4.27,0,0,1,5.19.94c1.59,1.65,1.64,3.95.13,6.16-3.56,5.21-11,2.75-11,2.72a.55.55,0,0,0-.7.34.55.55,0,0,0,.34.7A14.85,14.85,0,0,0,100,42.31Z"/><path class="cls-1" d="M96.41,41.9a.54.54,0,0,0,.18-1.06c-.08,0-7.43-2.64-7-8.92.17-2.68,1.62-4.47,3.89-4.79a4.27,4.27,0,0,1,4.67,2.44A2.5,2.5,0,0,1,96.87,33a2.28,2.28,0,0,1-3-1.23s-.49-1.3.35-1.89a1.15,1.15,0,0,1,1.37,0c.36.29.4.81.12,1.46a.55.55,0,1,0,1,.44A2.22,2.22,0,0,0,96.27,29a2.28,2.28,0,0,0-2.71,0c-1.55,1.09-.75,3.14-.72,3.23A3.39,3.39,0,0,0,97.29,34a3.59,3.59,0,0,0,1.85-4.78A5.39,5.39,0,0,0,93.28,26c-2.19.31-4.6,2-4.84,5.81-.43,7.12,7.71,10,7.79,10A.57.57,0,0,0,96.41,41.9Z"/><path class="cls-1" d="M117.55,46.86a7.72,7.72,0,0,0,2.53-.46,7,7,0,0,0,4.51-6.57c0-3-1.88-5.51-5.09-6.67-7.28-2.63-12.24,4.29-12.29,4.36a.55.55,0,0,0,.9.63c.18-.26,4.54-6.29,11-3.95,2.79,1,4.38,3.06,4.36,5.62a5.88,5.88,0,0,1-3.77,5.54c-2.39.83-3.8.23-4.56-.41A3.49,3.49,0,0,1,114,41.87a3.31,3.31,0,0,1,1.41-2.2,3,3,0,0,1,2.25-.48,2.3,2.3,0,0,1,1.67,1.35,2,2,0,0,1-.15,1.89,1.47,1.47,0,0,1-1.29.83,1.33,1.33,0,0,1-1.1-.78.55.55,0,0,0-1,.47,2.42,2.42,0,0,0,2,1.41A2.58,2.58,0,0,0,120.11,43a3.09,3.09,0,0,0,.22-2.89,3.44,3.44,0,0,0-2.44-2,4.09,4.09,0,0,0-3.1.65,4.41,4.41,0,0,0-1.89,2.92,4.58,4.58,0,0,0,1.55,4.11A4.67,4.67,0,0,0,117.55,46.86Z"/><path class="cls-1" d="M139.15,56.26l.37,0a4.4,4.4,0,0,0,3.61-2.38c.36-.84.52-2.21-.78-4-2.18-2.93-8-1.09-12.24.25l-1.46.46a3.85,3.85,0,0,1-3.76-.62,5.24,5.24,0,0,1-1.48-4.72A4.3,4.3,0,0,1,126,41.69a3.89,3.89,0,0,1,3.9.52A2.44,2.44,0,0,1,131,45a2.19,2.19,0,0,1-1.61,1.61,1.92,1.92,0,0,1-1.66-.57,1.16,1.16,0,0,1-.16-1.11,1,1,0,0,1,1.23-.73.53.53,0,0,0,.65-.41.54.54,0,0,0-.41-.66,2.11,2.11,0,0,0-2.52,1.47,2.24,2.24,0,0,0,.35,2.12,3,3,0,0,0,2.61,1A3.23,3.23,0,0,0,132,45.27a3.54,3.54,0,0,0-1.44-3.93,5,5,0,0,0-5-.66,5.43,5.43,0,0,0-3.25,4.42,6.31,6.31,0,0,0,1.86,5.7,5,5,0,0,0,4.78.83l1.48-.46c3.71-1.18,9.32-3,11-.64a2.9,2.9,0,0,1,.66,2.89,3.32,3.32,0,0,1-2.74,1.72,1.69,1.69,0,0,1-1.85-1.54,1.3,1.3,0,0,1,.88-1.64,1.08,1.08,0,0,1,1.11.25.91.91,0,0,1,.15.9.77.77,0,0,1-.67.48.55.55,0,0,0-.48.61.54.54,0,0,0,.61.48,1.83,1.83,0,0,0,1.56-1.17,2,2,0,0,0-.33-2,2.16,2.16,0,0,0-2.19-.6,2.37,2.37,0,0,0-1.73,2.9A2.83,2.83,0,0,0,139.15,56.26Z"/><path class="cls-1" d="M153.27,64.94a5.68,5.68,0,0,0,3.46-1.29,4.63,4.63,0,0,0,1.66-4.38,4.89,4.89,0,0,0-2-3.45,8.75,8.75,0,0,0-6.59-1c-3.07.6-5.25,0-6.14-1.55a.56.56,0,0,0-.75-.21.55.55,0,0,0-.21.75c1.14,2,3.74,2.78,7.31,2.09a7.62,7.62,0,0,1,5.74.82,3.83,3.83,0,0,1,1.58,2.71A3.52,3.52,0,0,1,156,62.81a4.11,4.11,0,0,1-3.44.93,3.51,3.51,0,0,1-2-2.24,2.18,2.18,0,0,1,.37-2,1.62,1.62,0,0,1,1.7-.69,1.55,1.55,0,0,1,1.13,1.17.66.66,0,0,1-.11.6.57.57,0,0,1-.36.16.57.57,0,0,0-.51,0,.55.55,0,0,0-.29.72c.18.44.75.49,1.23.36a1.64,1.64,0,0,0,1.12-2,2.64,2.64,0,0,0-1.93-2.05,2.72,2.72,0,0,0-2.83,1.06,3.27,3.27,0,0,0-.58,3,4.56,4.56,0,0,0,2.7,3A3.19,3.19,0,0,0,153.27,64.94Z"/><path class="cls-1" d="M147.64,55.81a.46.46,0,0,0,.21,0l.08,0c3.22-.85,3.8-2.44,3.72-3.63a3.53,3.53,0,0,0-2.07-3.06,3.11,3.11,0,0,0-3.19.3,2.39,2.39,0,0,0-1,2.45,2.72,2.72,0,0,0,2.05,2,2,2,0,0,0,2.27-1.22,1.64,1.64,0,0,0-.65-2.1.55.55,0,0,0-.75.2.54.54,0,0,0,.2.75.59.59,0,0,1,.17.75.85.85,0,0,1-1,.55,1.61,1.61,0,0,1-1.21-1.19,1.27,1.27,0,0,1,.57-1.34,2,2,0,0,1,2.06-.17,2.46,2.46,0,0,1,1.44,2.13c.09,1.41-1.53,2.14-2.91,2.5a.67.67,0,0,0-.46.27.55.55,0,0,0,.14.76A.61.61,0,0,0,147.64,55.81Z"/><path class="cls-1" d="M89,26.65a.55.55,0,0,0,.55-.53c0-.1.35-10.14,6.29-10.79,2.43-.26,4.07.64,4.5,2.47A3.64,3.64,0,0,1,98.39,22,2.24,2.24,0,0,1,96,21.64a1.7,1.7,0,0,1-.55-1.6,1,1,0,0,1,.88-.66c.83-.14,1.39,0,1.46.39a.6.6,0,0,1-.42.65.55.55,0,1,0,.19,1.08,1.68,1.68,0,0,0,1.31-1.91c-.13-.82-.92-1.59-2.72-1.3a2.1,2.1,0,0,0-1.75,1.42,2.76,2.76,0,0,0,.85,2.72,3.3,3.3,0,0,0,3.56.59,4.72,4.72,0,0,0,2.62-5.48c-.56-2.39-2.69-3.63-5.69-3.3-6.89.75-7.26,11.4-7.27,11.85a.54.54,0,0,0,.53.56Z"/><path class="cls-1" d="M88.59,16.59a.54.54,0,0,0,.55-.53c0-.08.26-7.46,4.58-7.93,1.74-.19,2.91.44,3.22,1.73a2.57,2.57,0,0,1-1.36,3,1.5,1.5,0,0,1-1.67-.23,1.13,1.13,0,0,1-.38-1,.61.61,0,0,1,.55-.4c.51-.08.9,0,.93.18s-.08.31-.2.32A.55.55,0,0,0,95,12.74a1.4,1.4,0,0,0,1.1-1.59c-.1-.65-.74-1.32-2.19-1.08a1.69,1.69,0,0,0-1.42,1.15,2.21,2.21,0,0,0,.67,2.18,2.62,2.62,0,0,0,2.81.47A3.68,3.68,0,0,0,98,9.61C97.67,8.17,96.34,6.73,93.6,7c-5.27.58-5.55,8.65-5.56,9a.55.55,0,0,0,.53.56Z"/><path class="cls-1" d="M88.59,8.18a.54.54,0,0,0,.55-.53c0-.06.21-6.14,3.73-6.52,1.41-.16,2.35.35,2.59,1.37a2,2,0,0,1-1.08,2.37,1.17,1.17,0,0,1-1.3-.17.84.84,0,0,1-.28-.79c0-.05.06-.21.38-.26s.66,0,.67.07a.2.2,0,0,1-.09.17A.55.55,0,0,0,93.94,5a1.25,1.25,0,0,0,1-1.43c-.09-.58-.66-1.18-1.93-1a1.5,1.5,0,0,0-1.25,1,1.92,1.92,0,0,0,.58,1.91,2.29,2.29,0,0,0,2.44.41,3.16,3.16,0,0,0,1.76-3.66C96.24,1,95.09-.22,92.75,0c-4.47.49-4.7,7.3-4.71,7.59a.54.54,0,0,0,.53.56Z"/><path class="cls-1" d="M126.48,199.21h0a.54.54,0,0,0,.54-.54s0-.08,0-.17c-.2-3.12-.41-13.77,5.08-19.61,3.36-3.58,8.85-5.3,14.16-7,4.64-1.46,9-2.84,11.92-5.37a14.18,14.18,0,0,0,4.67-11c-.07-3.6-1.44-6.83-3.66-8.63a9.56,9.56,0,0,0-7.74-2,9.45,9.45,0,0,0-6.48,4.3,8.9,8.9,0,0,0-.22,8.58,7.21,7.21,0,0,0,6.38,3.81c3.12.11,5.33-1.26,5.94-3.63a4.64,4.64,0,0,0-2.31-5.28,3,3,0,0,0-4.21.94,3.36,3.36,0,0,0,1.19,4.51c1.43,1,2.32.62,2.72.34a2,2,0,0,0,.69-2,1.44,1.44,0,0,0-1.17-1.18.55.55,0,0,0-.17,1.09c.18,0,.25.25.27.34a.87.87,0,0,1-.25.87c-.29.2-.83.07-1.49-.36a2.26,2.26,0,0,1-.84-3c.41-.72,1.36-1.24,2.76-.52a3.53,3.53,0,0,1,1.75,4c-.47,1.83-2.28,2.87-4.85,2.8a6.15,6.15,0,0,1-5.44-3.23,7.76,7.76,0,0,1,.19-7.49,8.35,8.35,0,0,1,5.72-3.79,8.52,8.52,0,0,1,6.87,1.82c2,1.6,3.18,4.51,3.25,7.79a13,13,0,0,1-4.3,10.12c-2.71,2.38-7,3.73-11.52,5.15-5.45,1.7-11.07,3.47-14.63,7.26-5.79,6.16-5.58,17.19-5.38,20.43v.11A.55.55,0,0,0,126.48,199.21Z"/><path class="cls-1" d="M137.72,161.12c3.43,0,4.85-3.35,5.64-6a14,14,0,0,1,2.3-4.88.55.55,0,0,0-.83-.72,14.93,14.93,0,0,0-2.53,5.29c-1.26,4.3-3,5.81-5.93,5.05a3.62,3.62,0,0,1-2.73-3.6,2.47,2.47,0,0,1,2-2.51,2.61,2.61,0,0,1,3,1.07,2,2,0,0,1-.12,2.32,1.48,1.48,0,0,1-1.44.43,1.33,1.33,0,0,1-1-.75c0-.07-.1-.31.23-.65a.55.55,0,0,0,0-.78.54.54,0,0,0-.77,0,1.71,1.71,0,0,0-.49,1.74,2.42,2.42,0,0,0,1.83,1.5,2.57,2.57,0,0,0,2.5-.78,3.08,3.08,0,0,0,.25-3.61,3.67,3.67,0,0,0-4.15-1.59,3.56,3.56,0,0,0-2.83,3.57,4.72,4.72,0,0,0,3.55,4.68A6.2,6.2,0,0,0,137.72,161.12Z"/><path class="cls-1" d="M138.6,152.39c1.89,0,3.69-1.25,5.13-2.47a19.92,19.92,0,0,1,4.88-2.81.55.55,0,0,0,.32-.71.55.55,0,0,0-.71-.32,20.79,20.79,0,0,0-5.19,3c-2.52,2.12-4.27,2.68-5.86,1.86a2.27,2.27,0,0,1-.71-2.74,1.92,1.92,0,0,1,2.29-1.39c1.36.26,1.8,1.07,1.76,1.74a1.46,1.46,0,0,1-1.38,1.37c-.46,0-.79-.09-.91-.31a.47.47,0,0,1,.05-.47A.77.77,0,0,1,139,149a.55.55,0,0,0,.66-.4.54.54,0,0,0-.41-.66,1.77,1.77,0,0,0-1.89.56,1.53,1.53,0,0,0-.15,1.65,1.88,1.88,0,0,0,1.95.89,2.52,2.52,0,0,0,2.4-2.39c.08-1.08-.58-2.49-2.64-2.89a3,3,0,0,0-3.54,2.11c-.49,1.41-.21,3.32,1.25,4.08A4.22,4.22,0,0,0,138.6,152.39Z"/><path class="cls-1" d="M127.81,185.65a.55.55,0,0,0,.53-.39A20.27,20.27,0,0,1,133.2,177a49.77,49.77,0,0,0,3.84-5,9.66,9.66,0,0,0,.22-10.27c-1.38-2.36-3.56-3.73-5.67-3.57a6.11,6.11,0,0,0-5.29,4.26,4.12,4.12,0,0,0,.85,4.48,4.4,4.4,0,0,0,4.51.78,3.17,3.17,0,0,0,2-2.75,3,3,0,0,0-1.83-3.15,1.88,1.88,0,0,0-2.22.68,1.47,1.47,0,0,0-.24,1.38,2.44,2.44,0,0,0,1.51,1.24.56.56,0,0,0,.69-.37.54.54,0,0,0-.37-.68h0c-.27-.09-.71-.32-.79-.56,0,0-.06-.15.11-.4a.82.82,0,0,1,1-.25,1.88,1.88,0,0,1,1.09,2,2.07,2.07,0,0,1-1.31,1.81,3.28,3.28,0,0,1-3.37-.61,3.09,3.09,0,0,1-.51-3.3,5,5,0,0,1,4.32-3.5c1.69-.13,3.47,1,4.65,3a8.6,8.6,0,0,1-.2,9.11,47.78,47.78,0,0,1-3.76,4.87,21.74,21.74,0,0,0-5.07,8.67.55.55,0,0,0,.36.69Z"/><path class="cls-1" d="M151.5,198.17h.7a11,11,0,0,0,9.47-5.92c2.22-4.22,1.72-9.67-1.33-14.58-6.14-9.89-18.32-5.53-18.45-5.49a.55.55,0,0,0,.38,1c.47-.18,11.47-4.09,17.14,5,2.84,4.58,3.32,9.62,1.28,13.49a9.91,9.91,0,0,1-8.54,5.33c-3.17.15-5.66-.81-7.18-2.77a9.07,9.07,0,0,1-1.27-7.86,6.43,6.43,0,0,1,5-4.21,4.87,4.87,0,0,1,4.94,2.1,5.53,5.53,0,0,1,.64,6,4.6,4.6,0,0,1-4.41,2.29,3,3,0,0,1-3-2.18,3,3,0,0,1,1.37-3.18,2.57,2.57,0,0,1,3,.38,2.19,2.19,0,0,1,.53,2.62,1.54,1.54,0,0,1-1.18,1.05,1.19,1.19,0,0,1-1-.49.56.56,0,0,1-.07-.57.55.55,0,0,0-1-.49,1.63,1.63,0,0,0,.15,1.67,2.24,2.24,0,0,0,2,1,2.54,2.54,0,0,0,2.09-1.68,3.29,3.29,0,0,0-.78-3.89,3.68,3.68,0,0,0-4.29-.53,4,4,0,0,0,2.08,7.42,5.67,5.67,0,0,0,5.44-2.85,6.59,6.59,0,0,0-.69-7.16,6,6,0,0,0-6-2.54,7.54,7.54,0,0,0-5.88,5A10.21,10.21,0,0,0,144.1,195C145.26,196.46,147.47,198.17,151.5,198.17Z"/><path class="cls-1" d="M127.44,198.77h0a.56.56,0,0,0,.5-.6c0-.11-1-11.09,3-15.74a7.09,7.09,0,0,1,7.21-2.46,5.48,5.48,0,0,1,4.13,4.07,4.34,4.34,0,0,1-1.45,4.65,3.54,3.54,0,0,1-3.78.27,2.4,2.4,0,0,1-.9-3.06,1.59,1.59,0,0,1,1.77-1.16c1,.26,1.4.91,1.38,1.44s-.54,1-1.32,1.13a.54.54,0,0,0-.46.62.55.55,0,0,0,.63.46,2.41,2.41,0,0,0,2.25-2.15,2.7,2.7,0,0,0-5.26-.76,3.46,3.46,0,0,0,1.35,4.42,4.63,4.63,0,0,0,5-.32,5.39,5.39,0,0,0,1.89-5.76,6.55,6.55,0,0,0-4.94-4.91,8.27,8.27,0,0,0-8.32,2.81c-4.29,5-3.26,16.09-3.22,16.56A.55.55,0,0,0,127.44,198.77Z"/><path class="cls-1" d="M135.52,198.51h.26c1.91-.11,3.25-1.08,3.6-2.61a3,3,0,0,0-1.37-3.3,2.41,2.41,0,0,0-3.15.49,2.21,2.21,0,0,0,.5,3,.54.54,0,0,0,.78,0,.56.56,0,0,0,0-.78c-.57-.55-.71-1.13-.4-1.55a1.34,1.34,0,0,1,1.74-.19,1.92,1.92,0,0,1,.83,2.1,2.51,2.51,0,0,1-2.59,1.75,2.55,2.55,0,0,1-2.68-1.55,3.86,3.86,0,0,1,1-4.17c2.09-2,4.31-1.35,7.69,2.12s6.47,4.33,6.6,4.36a.55.55,0,0,0,.26-1.07h0a14.65,14.65,0,0,1-6.07-4.06c-2.57-2.64-5.93-5.27-9.23-2.14a4.91,4.91,0,0,0-1.22,5.39A3.65,3.65,0,0,0,135.52,198.51Z"/><path class="cls-1" d="M125.63,199.21a.55.55,0,0,0,.55-.54v-.11c.2-3.24.4-14.27-5.38-20.43-3.56-3.79-9.19-5.56-14.63-7.26-4.54-1.42-8.82-2.77-11.52-5.15a13,13,0,0,1-4.3-10.12c.06-3.28,1.28-6.19,3.25-7.79a8.5,8.5,0,0,1,6.86-1.82,8.33,8.33,0,0,1,5.72,3.79,7.73,7.73,0,0,1,.19,7.49,6.14,6.14,0,0,1-5.44,3.23c-2.55.07-4.37-1-4.84-2.8a3.52,3.52,0,0,1,1.75-4c1.4-.72,2.34-.2,2.76.52a2.26,2.26,0,0,1-.85,3c-.65.43-1.19.56-1.49.36a.89.89,0,0,1-.25-.87c0-.09.1-.32.27-.34a.55.55,0,0,0,.46-.63.54.54,0,0,0-.62-.46A1.47,1.47,0,0,0,97,156.46a2,2,0,0,0,.7,2c.4.28,1.28.61,2.72-.34a3.36,3.36,0,0,0,1.19-4.51,3,3,0,0,0-4.21-.94A4.63,4.63,0,0,0,95,158c.61,2.37,2.82,3.73,6,3.63a7.21,7.21,0,0,0,6.37-3.81,8.87,8.87,0,0,0-.22-8.58,9.43,9.43,0,0,0-6.47-4.3,9.55,9.55,0,0,0-7.74,2c-2.22,1.8-3.59,5-3.66,8.63a14.11,14.11,0,0,0,4.67,11c2.88,2.53,7.27,3.91,11.92,5.37,5.31,1.66,10.8,3.38,14.16,7,5.48,5.84,5.27,16.49,5.08,19.61a1.49,1.49,0,0,0,0,.17A.55.55,0,0,0,125.63,199.21Z"/><path class="cls-1" d="M114.38,161.12a6.2,6.2,0,0,0,1.63-.23,4.73,4.73,0,0,0,3.56-4.68,3.58,3.58,0,0,0-2.83-3.57,3.69,3.69,0,0,0-4.16,1.59,3.1,3.1,0,0,0,.26,3.61,2.56,2.56,0,0,0,2.49.78,2.42,2.42,0,0,0,1.84-1.5,1.73,1.73,0,0,0-.49-1.74.55.55,0,1,0-.79.76c.32.34.25.58.23.65a1.35,1.35,0,0,1-1,.75,1.48,1.48,0,0,1-1.44-.43,2,2,0,0,1-.13-2.32,2.62,2.62,0,0,1,3-1.07,2.48,2.48,0,0,1,2,2.51,3.64,3.64,0,0,1-2.74,3.6c-2.89.76-4.66-.75-5.93-5.05a14.83,14.83,0,0,0-2.52-5.29.55.55,0,0,0-.78-.05.54.54,0,0,0,0,.77,14.43,14.43,0,0,1,2.3,4.88C109.54,157.77,111,161.12,114.38,161.12Z"/><path class="cls-1" d="M113.5,152.39a4.23,4.23,0,0,0,1.94-.47c1.46-.76,1.73-2.67,1.24-4.08a3,3,0,0,0-3.54-2.11c-2.06.4-2.71,1.81-2.64,2.89a2.53,2.53,0,0,0,2.41,2.39,1.89,1.89,0,0,0,2-.89,1.55,1.55,0,0,0-.16-1.65,1.76,1.76,0,0,0-1.89-.56.55.55,0,1,0,.26,1.06.75.75,0,0,1,.76.17.43.43,0,0,1,0,.47c-.11.22-.45.33-.9.31a1.46,1.46,0,0,1-1.38-1.37c0-.67.39-1.48,1.75-1.74a1.92,1.92,0,0,1,2.29,1.39,2.26,2.26,0,0,1-.71,2.74c-1.58.82-3.33.26-5.85-1.86a20.77,20.77,0,0,0-5.2-3,.54.54,0,0,0-.7.32.55.55,0,0,0,.31.71,19.73,19.73,0,0,1,4.88,2.81C109.82,151.14,111.61,152.39,113.5,152.39Z"/><path class="cls-1" d="M124.29,185.65l.17,0a.55.55,0,0,0,.36-.69,21.63,21.63,0,0,0-5.08-8.67A49,49,0,0,1,116,171.4a8.56,8.56,0,0,1-.2-9.11c1.17-2,2.95-3.16,4.64-3a5,5,0,0,1,4.33,3.5,3.07,3.07,0,0,1-.52,3.3,3.27,3.27,0,0,1-3.36.61,2.07,2.07,0,0,1-1.31-1.81,1.88,1.88,0,0,1,1.09-2,.82.82,0,0,1,1,.25c.16.25.12.36.11.4-.09.25-.56.49-.8.56a.54.54,0,0,0-.36.68.55.55,0,0,0,.68.37,2.45,2.45,0,0,0,1.52-1.24,1.5,1.5,0,0,0-.24-1.38,1.89,1.89,0,0,0-2.23-.68,3,3,0,0,0-1.83,3.15,3.16,3.16,0,0,0,2,2.75,4.38,4.38,0,0,0,4.5-.78,4.1,4.1,0,0,0,.85-4.48,6.11,6.11,0,0,0-5.28-4.26c-2.11-.16-4.29,1.21-5.68,3.57a9.66,9.66,0,0,0,.23,10.27,48.33,48.33,0,0,0,3.84,5,20.49,20.49,0,0,1,4.86,8.27A.54.54,0,0,0,124.29,185.65Z"/><path class="cls-1" d="M100.6,198.17c4,0,6.25-1.71,7.4-3.2a10.22,10.22,0,0,0,1.46-8.86,7.57,7.57,0,0,0-5.89-5,6,6,0,0,0-6,2.54,6.58,6.58,0,0,0-.7,7.16,5.66,5.66,0,0,0,5.45,2.85,4,4,0,0,0,2.08-7.42,3.68,3.68,0,0,0-4.29.53,3.29,3.29,0,0,0-.78,3.89,2.53,2.53,0,0,0,2.08,1.68,2.25,2.25,0,0,0,2-1,1.63,1.63,0,0,0,.14-1.67.55.55,0,0,0-.74-.24.54.54,0,0,0-.24.73.56.56,0,0,1-.07.57,1.2,1.2,0,0,1-1,.49,1.56,1.56,0,0,1-1.19-1.05,2.19,2.19,0,0,1,.53-2.62,2.57,2.57,0,0,1,3-.38,3,3,0,0,1,1.37,3.18c-.27,1.26-1.37,2.06-3,2.18a4.6,4.6,0,0,1-4.4-2.29,5.5,5.5,0,0,1,.63-6,4.9,4.9,0,0,1,5-2.1,6.42,6.42,0,0,1,5,4.21,9,9,0,0,1-1.27,7.86c-1.52,2-4,2.92-7.18,2.77a9.92,9.92,0,0,1-8.54-5.33c-2-3.87-1.55-8.91,1.29-13.49,5.67-9.13,17-5.08,17.13-5a.56.56,0,0,0,.71-.33.56.56,0,0,0-.33-.71c-.12,0-12.3-4.4-18.45,5.49-3.05,4.91-3.54,10.36-1.32,14.58a11,11,0,0,0,9.46,5.92Z"/><path class="cls-1" d="M124.67,198.77a.54.54,0,0,0,.54-.49c.05-.47,1.08-11.56-3.22-16.56a8.26,8.26,0,0,0-8.32-2.81,6.55,6.55,0,0,0-4.93,4.91,5.35,5.35,0,0,0,1.89,5.76,4.61,4.61,0,0,0,5,.32,3.46,3.46,0,0,0,1.36-4.42,2.7,2.7,0,0,0-5.26.76,2.41,2.41,0,0,0,2.25,2.15.54.54,0,0,0,.62-.46.53.53,0,0,0-.45-.62c-.79-.13-1.29-.56-1.32-1.13s.39-1.18,1.37-1.44A1.6,1.6,0,0,1,116,185.9,2.41,2.41,0,0,1,115,189a3.53,3.53,0,0,1-3.77-.27,4.33,4.33,0,0,1-1.46-4.65A5.49,5.49,0,0,1,114,180a7.1,7.1,0,0,1,7.21,2.46c4,4.65,3,15.63,3,15.74a.55.55,0,0,0,.49.6Z"/><path class="cls-1" d="M116.59,198.51a3.63,3.63,0,0,0,3.48-2.23,4.89,4.89,0,0,0-1.21-5.39c-3.3-3.13-6.67-.5-9.23,2.14a14.79,14.79,0,0,1-6.07,4.06.54.54,0,0,0-.4.67.55.55,0,0,0,.66.4c.13,0,3.15-.81,6.6-4.36s5.6-4.09,7.68-2.12a3.84,3.84,0,0,1,1,4.17,2.93,2.93,0,0,1-5.27-.2,1.92,1.92,0,0,1,.84-2.1,1.34,1.34,0,0,1,1.74.19c.31.42.16,1-.4,1.55a.55.55,0,0,0,0,.78.54.54,0,0,0,.78,0,2.21,2.21,0,0,0,.51-3,2.42,2.42,0,0,0-3.16-.49,3,3,0,0,0-1.37,3.3c.35,1.53,1.7,2.5,3.61,2.61Z"/><path class="cls-1" d="M3.09,57.79a12.21,12.21,0,0,0,3.1,7.52A8.43,8.43,0,0,0,3.09,68,8.35,8.35,0,0,0,0,65.31,12.17,12.17,0,0,0,3.09,57.79Z"/><path class="cls-1" d="M3.09,203.71a1.1,1.1,0,0,0,1.1-1.1V67.34a1.1,1.1,0,1,0-2.2,0V202.61A1.1,1.1,0,0,0,3.09,203.71Z"/><path class="cls-1" d="M.15,69.43a.9.9,0,0,0,.9.9H5.13a.9.9,0,0,0,.91-.9H6a.9.9,0,0,0-.91-.91H1.05a.9.9,0,0,0-.9.91Z"/><path class="cls-1" d="M1.51,58.25a1.59,1.59,0,1,0,1.58-1.59A1.59,1.59,0,0,0,1.51,58.25Z"/><path class="cls-1" d="M5.49,92.9A1.06,1.06,0,0,1,4.43,94H2A1.06,1.06,0,0,1,1,92.9H1A1.06,1.06,0,0,1,2,91.84H4.43A1.06,1.06,0,0,1,5.49,92.9Z"/><path class="cls-1" d="M5.49,97.64a1.05,1.05,0,0,1-1.06,1H2a1.05,1.05,0,0,1-1.06-1H1A1.05,1.05,0,0,1,2,96.58H4.43a1.05,1.05,0,0,1,1.06,1.06Z"/><path class="cls-1" d="M5.49,148.44a1.06,1.06,0,0,1-1.06,1.06H2A1.06,1.06,0,0,1,1,148.44H1A1.06,1.06,0,0,1,2,147.38H4.43a1.06,1.06,0,0,1,1.06,1.06Z"/><path class="cls-1" d="M5.49,153.18a1.05,1.05,0,0,1-1.06,1H2a1.05,1.05,0,0,1-1.06-1H1A1.05,1.05,0,0,1,2,152.12H4.43a1.05,1.05,0,0,1,1.06,1.06Z"/><path class="cls-1" d="M3.09,75.56a1.1,1.1,0,0,0,.78-.32A112.15,112.15,0,0,1,25.21,59.51c12.13-7,31.18-15,53.13-13.64a1.1,1.1,0,1,0,.14-2.19c-22.52-1.44-42,6.79-54.43,14A112.23,112.23,0,0,0,2.31,73.69a1.1,1.1,0,0,0,.78,1.87Z"/><path class="cls-1" d="M78.41,205.89a1.1,1.1,0,0,0,1.1-1.1V4.09a1.1,1.1,0,1,0-2.2,0v200.7A1.1,1.1,0,0,0,78.41,205.89Z"/><path class="cls-1" d="M3.23,199.76H78.41a1.1,1.1,0,1,0,0-2.2H3.23a1.1,1.1,0,1,0,0,2.2Z"/><path class="cls-1" d="M3.23,146.21H78.41a.83.83,0,0,0,.83-.83.82.82,0,0,0-.83-.82H3.23a.82.82,0,0,0-.83.82A.83.83,0,0,0,3.23,146.21Z"/><path class="cls-1" d="M3.23,137.77H78.41a.82.82,0,1,0,0-1.64H3.23a.82.82,0,1,0,0,1.64Z"/><path class="cls-1" d="M37.29,140.72A4.32,4.32,0,1,1,41.6,145,4.32,4.32,0,0,1,37.29,140.72Zm1.1,0a3.22,3.22,0,1,0,3.21-3.22A3.22,3.22,0,0,0,38.39,140.72Z"/><path class="cls-1" d="M33.38,145a4.42,4.42,0,0,0,2.77-1,4.5,4.5,0,0,0,1.1-4.58A3.4,3.4,0,0,0,34.06,137c-3.68-.28-8.52,1-15.23,3.92C12.65,143.62,10.92,144.32,8,144a3.78,3.78,0,0,1-3.06-2.11A3,3,0,0,1,5,139a3.43,3.43,0,0,1,3.14-1.45,2,2,0,0,1,1.76,1.19,2.15,2.15,0,0,1-.17,2.09,2.08,2.08,0,0,1-1.66.92A1.39,1.39,0,0,1,6.71,141a1,1,0,0,1,.41-1.16.93.93,0,0,1,.92-.29.62.62,0,0,1,.42.48.75.75,0,0,1-.33.7.29.29,0,0,0,0,.39.27.27,0,0,0,.39,0A1.27,1.27,0,0,0,9,140a1.21,1.21,0,0,0-.78-.91,1.48,1.48,0,0,0-1.47.41,1.57,1.57,0,0,0-.55,1.76A1.93,1.93,0,0,0,8,142.34a2.68,2.68,0,0,0,2.12-1.15,2.78,2.78,0,0,0,.22-2.61A2.53,2.53,0,0,0,8.14,137a4,4,0,0,0-3.66,1.71,3.49,3.49,0,0,0-.05,3.42,4.32,4.32,0,0,0,3.5,2.42c3.06.29,5-.48,11.12-3.19,6.62-2.93,11.38-4.16,15-3.89a2.9,2.9,0,0,1,2.71,2.11,4,4,0,0,1-.93,4,3.81,3.81,0,0,1-3.17.79,2.53,2.53,0,0,1-1.76-1.3,2.15,2.15,0,0,1,1.88-3.16.89.89,0,0,1,.9.44.84.84,0,0,1-.06.83.35.35,0,0,1-.37.13.83.83,0,0,1-.55-.34.63.63,0,0,1-.06-.41.27.27,0,0,0-.19-.34.28.28,0,0,0-.34.19,1.15,1.15,0,0,0,.11.84,1.38,1.38,0,0,0,.91.59.86.86,0,0,0,.92-.32,1.35,1.35,0,0,0,.12-1.41,1.44,1.44,0,0,0-1.41-.75,2.69,2.69,0,0,0-2.35,4,3,3,0,0,0,2.13,1.59A4.3,4.3,0,0,0,33.38,145Z"/><path class="cls-1" d="M28.06,145a.28.28,0,0,0,.27-.19,2.77,2.77,0,0,0-.45-2.32c-.71-1-2-1.46-3.89-1.48h-.14c-4.12,0-10,2-10.22,2.06a.28.28,0,0,0-.18.35.27.27,0,0,0,.35.17c.06,0,6-2,10.05-2H24c1.67,0,2.86.45,3.46,1.25a2.2,2.2,0,0,1,.36,1.84A.27.27,0,0,0,28,145Z"/><path class="cls-1" d="M11.08,144.44a.18.18,0,0,0,.1,0c.21-.08,5.22-2,6.45-4a1.92,1.92,0,0,0,.13-2.13,3.49,3.49,0,0,0-3.33-1.08.28.28,0,1,0,.06.55,3,3,0,0,1,2.81.83,1.41,1.41,0,0,1-.15,1.55C16,142,11,143.89,11,143.91a.27.27,0,0,0-.17.35A.28.28,0,0,0,11.08,144.44Z"/><path class="cls-1" d="M49.17,145a3.69,3.69,0,0,0,.87-.1,3,3,0,0,0,2.14-1.59,2.73,2.73,0,0,0-.09-2.66,2.7,2.7,0,0,0-2.27-1.29,1.47,1.47,0,0,0-1.41.75,1.35,1.35,0,0,0,.12,1.41.88.88,0,0,0,.93.32,1.35,1.35,0,0,0,.9-.59,1.15,1.15,0,0,0,.11-.84.28.28,0,0,0-.34-.19.27.27,0,0,0-.19.34.59.59,0,0,1-.06.42.87.87,0,0,1-.55.33.35.35,0,0,1-.37-.13.84.84,0,0,1-.06-.83.89.89,0,0,1,.91-.44,2.15,2.15,0,0,1,1.87,3.16,2.51,2.51,0,0,1-1.76,1.3,3.81,3.81,0,0,1-3.17-.79,4,4,0,0,1-.92-4,2.88,2.88,0,0,1,2.7-2.11c3.59-.27,8.35,1,15,3.89,6.15,2.71,8.06,3.48,11.12,3.19a4.31,4.31,0,0,0,3.5-2.42,3.49,3.49,0,0,0-.05-3.42A4,4,0,0,0,74.41,137a2.53,2.53,0,0,0-2.22,1.54,2.78,2.78,0,0,0,.22,2.61,2.68,2.68,0,0,0,2.12,1.15,2,2,0,0,0,1.83-1.11,1.6,1.6,0,0,0-.56-1.76,1.46,1.46,0,0,0-1.46-.41,1.17,1.17,0,0,0-.78.91,1.28,1.28,0,0,0,.51,1.22.27.27,0,0,0,.39,0,.28.28,0,0,0,0-.39.72.72,0,0,1-.32-.7.63.63,0,0,1,.41-.48.93.93,0,0,1,.92.29,1,1,0,0,1,.41,1.16,1.39,1.39,0,0,1-1.31.76,2.08,2.08,0,0,1-1.66-.92,2.13,2.13,0,0,1-.16-2.09,2,2,0,0,1,1.75-1.19A3.42,3.42,0,0,1,77.6,139a3,3,0,0,1,0,2.89A3.77,3.77,0,0,1,74.57,144c-2.93.28-4.67-.42-10.84-3.15-6.71-3-11.55-4.2-15.24-3.92a3.41,3.41,0,0,0-3.19,2.48A4.48,4.48,0,0,0,46.41,144,4.38,4.38,0,0,0,49.17,145Z"/><path class="cls-1" d="M54.49,145h.07a.27.27,0,0,0,.19-.34,2.2,2.2,0,0,1,.36-1.84c.6-.8,1.79-1.23,3.46-1.25,4-.05,10.12,2,10.18,2a.27.27,0,0,0,.35-.17.28.28,0,0,0-.17-.35c-.26-.08-6.27-2.1-10.37-2.06-1.87,0-3.18.52-3.89,1.48a2.77,2.77,0,0,0-.45,2.32A.28.28,0,0,0,54.49,145Z"/><path class="cls-1" d="M71.47,144.44a.28.28,0,0,0,.26-.18.27.27,0,0,0-.16-.35s-5-1.89-6.17-3.8a1.41,1.41,0,0,1-.15-1.55,3,3,0,0,1,2.82-.83.29.29,0,0,0,.3-.25.27.27,0,0,0-.25-.3,3.49,3.49,0,0,0-3.33,1.08,1.91,1.91,0,0,0,.14,2.13c1.22,2.07,6.23,4,6.44,4A.2.2,0,0,0,71.47,144.44Z"/><path class="cls-1" d="M8.51,136a3.94,3.94,0,0,0,2.7-.91c1-.91,1.56-2.48,1.56-4.68V76.9c0-.06-.32-5-4.14-5h0a4,4,0,0,0-3.24,1.25,4.18,4.18,0,0,0-.72,3.45,2.62,2.62,0,0,0,2,2.17A2.26,2.26,0,0,0,9,78a1.75,1.75,0,0,0,.13-2.21,1.79,1.79,0,0,0-2.19-.4A1.32,1.32,0,0,0,6,76.46a1.3,1.3,0,0,0,.6,1.14,1.1,1.1,0,0,0,1.12.05.28.28,0,0,0,.11-.38.28.28,0,0,0-.38-.1.52.52,0,0,1-.55,0,.7.7,0,0,1-.35-.63c0-.25.21-.47.57-.63a1.21,1.21,0,0,1,1.53.25,1.18,1.18,0,0,1-.13,1.52,1.72,1.72,0,0,1-1.81.6A2.11,2.11,0,0,1,5.2,76.51a3.8,3.8,0,0,1,.6-3,3.51,3.51,0,0,1,2.82-1h0c3.3,0,3.58,4.42,3.59,4.47v53.45c0,2-.47,3.47-1.38,4.27a3.8,3.8,0,0,1-3.12.72,3,3,0,0,1-2.88-2.55,3.3,3.3,0,0,1,1.23-3.34,1.52,1.52,0,0,1,1.87.23,1.36,1.36,0,0,1,.45,1.38.72.72,0,0,1-.83.41.46.46,0,0,1-.4-.42c0-.49.29-.55.38-.56a.28.28,0,0,0,0-.55,1,1,0,0,0-.9,1.11,1,1,0,0,0,.83,1,1.3,1.3,0,0,0,1.45-.71,1.92,1.92,0,0,0-.56-2A2.08,2.08,0,0,0,5.82,129,3.81,3.81,0,0,0,4.3,132.9a3.58,3.58,0,0,0,3.35,3A6.38,6.38,0,0,0,8.51,136Z"/><path class="cls-1" d="M16.49,136a3.94,3.94,0,0,0,2.7-.91c1-.91,1.56-2.48,1.56-4.68V71c0-.06-.32-5-4.14-5h0a4.06,4.06,0,0,0-3.24,1.25,4.18,4.18,0,0,0-.72,3.45,2.62,2.62,0,0,0,2,2.17A2.24,2.24,0,0,0,17,72a1.73,1.73,0,0,0,.13-2.2,1.79,1.79,0,0,0-2.19-.41,1.33,1.33,0,0,0-.89,1.1,1.27,1.27,0,0,0,.6,1.13,1.1,1.1,0,0,0,1.12,0,.27.27,0,0,0,.11-.37.29.29,0,0,0-.38-.11.54.54,0,0,1-.55,0,.72.72,0,0,1-.35-.63.82.82,0,0,1,.56-.64,1.25,1.25,0,0,1,1.54.25,1.2,1.2,0,0,1-.13,1.53,1.71,1.71,0,0,1-1.81.59,2.1,2.1,0,0,1-1.55-1.73,3.77,3.77,0,0,1,.6-3A3.51,3.51,0,0,1,16.6,66.5h0c3.3,0,3.58,4.42,3.59,4.47v59.4c0,2-.47,3.47-1.38,4.27a3.81,3.81,0,0,1-3.12.72,3,3,0,0,1-2.88-2.55,3.3,3.3,0,0,1,1.23-3.34,1.52,1.52,0,0,1,1.87.23,1.39,1.39,0,0,1,.46,1.38.75.75,0,0,1-.84.41.47.47,0,0,1-.4-.42c0-.49.29-.55.38-.56a.27.27,0,0,0,.25-.29.28.28,0,0,0-.28-.26,1,1,0,0,0-.9,1.11,1,1,0,0,0,.83,1,1.3,1.3,0,0,0,1.45-.71,1.92,1.92,0,0,0-.56-2A2.08,2.08,0,0,0,13.8,129a3.81,3.81,0,0,0-1.52,3.92,3.58,3.58,0,0,0,3.35,3A6.48,6.48,0,0,0,16.49,136Z"/><path class="cls-1" d="M49.37,124.62a4,4,0,0,0,2.7-.91c1-.92,1.56-2.49,1.56-4.69V67.12c0-.06-.32-5-4.14-5h0a4,4,0,0,0-3.24,1.25,4.18,4.18,0,0,0-.72,3.45,2.64,2.64,0,0,0,2,2.17,2.26,2.26,0,0,0,2.38-.79A1.77,1.77,0,0,0,50,66a1.8,1.8,0,0,0-2.2-.4,1.32,1.32,0,0,0-.89,1.1,1.27,1.27,0,0,0,.61,1.13,1.08,1.08,0,0,0,1.11.05.27.27,0,1,0-.26-.48.54.54,0,0,1-.56,0,.74.74,0,0,1-.35-.63c0-.25.21-.47.57-.63a1.24,1.24,0,0,1,1.54.25,1.2,1.2,0,0,1-.14,1.52,1.69,1.69,0,0,1-1.81.6,2.11,2.11,0,0,1-1.55-1.73,3.8,3.8,0,0,1,.6-3,3.52,3.52,0,0,1,2.82-1h0c3.31,0,3.59,4.42,3.59,4.47V119c0,2-.46,3.47-1.38,4.27a3.8,3.8,0,0,1-3.12.73,3,3,0,0,1-2.88-2.56,3.3,3.3,0,0,1,1.23-3.34,1.52,1.52,0,0,1,1.87.23,1.4,1.4,0,0,1,.46,1.39.73.73,0,0,1-.84.4.46.46,0,0,1-.4-.42c0-.49.29-.55.38-.55a.3.3,0,0,0,.26-.3.28.28,0,0,0-.29-.25,1,1,0,0,0-.07,2.06,1.28,1.28,0,0,0,1.45-.71,1.92,1.92,0,0,0-.56-2,2.08,2.08,0,0,0-2.51-.32,3.82,3.82,0,0,0-1.52,3.92,3.58,3.58,0,0,0,3.35,3A6.55,6.55,0,0,0,49.37,124.62Z"/><path class="cls-1" d="M17.77,78.84a2.44,2.44,0,0,0,.59-.07,2.62,2.62,0,0,0,2-2.17,4.18,4.18,0,0,0-.72-3.45,4,4,0,0,0-3.23-1.25h0c-3.82,0-4.13,4.94-4.13,5a.26.26,0,0,0,.26.29.25.25,0,0,0,.28-.25c0-.19.29-4.47,3.59-4.47h0a3.51,3.51,0,0,1,2.82,1,3.8,3.8,0,0,1,.6,3,2.11,2.11,0,0,1-1.55,1.73,1.72,1.72,0,0,1-1.81-.6,1.18,1.18,0,0,1-.13-1.52,1.23,1.23,0,0,1,1.54-.25c.35.16.54.38.56.63a.7.7,0,0,1-.35.63.52.52,0,0,1-.55,0,.28.28,0,0,0-.38.1.29.29,0,0,0,.11.38,1.1,1.1,0,0,0,1.12-.05,1.3,1.3,0,0,0,.6-1.14,1.32,1.32,0,0,0-.89-1.09,1.79,1.79,0,0,0-2.19.4A1.75,1.75,0,0,0,16,78,2.21,2.21,0,0,0,17.77,78.84Z"/><path class="cls-1" d="M65.53,136a6.53,6.53,0,0,0,.87-.05,3.6,3.6,0,0,0,3.35-3A3.81,3.81,0,0,0,68.22,129a2.07,2.07,0,0,0-2.5.32,1.92,1.92,0,0,0-.57,2,1.3,1.3,0,0,0,1.45.71,1,1,0,0,0-.07-2.07.28.28,0,0,0-.28.27.26.26,0,0,0,.26.28c.09,0,.38.07.38.56,0,.24-.21.37-.41.42a.72.72,0,0,1-.83-.41,1.36,1.36,0,0,1,.45-1.38,1.52,1.52,0,0,1,1.87-.23,3.29,3.29,0,0,1,1.23,3.34,3,3,0,0,1-2.87,2.55,3.83,3.83,0,0,1-3.13-.72c-.91-.8-1.37-2.24-1.37-4.27V76.9c0-.17.28-4.45,3.58-4.45h0a3.54,3.54,0,0,1,2.82,1,3.79,3.79,0,0,1,.59,3,2.1,2.1,0,0,1-1.55,1.73,1.72,1.72,0,0,1-1.81-.6,1.18,1.18,0,0,1-.13-1.52,1.23,1.23,0,0,1,1.54-.25c.35.16.55.38.56.63a.7.7,0,0,1-.35.63.51.51,0,0,1-.55,0,.28.28,0,0,0-.38.1.29.29,0,0,0,.11.38,1.1,1.1,0,0,0,1.12-.05,1.3,1.3,0,0,0,.6-1.14,1.32,1.32,0,0,0-.88-1.09,1.8,1.8,0,0,0-2.2.4A1.76,1.76,0,0,0,65.05,78a2.27,2.27,0,0,0,2.38.79,2.63,2.63,0,0,0,1.95-2.17,4.17,4.17,0,0,0-.71-3.45,4,4,0,0,0-3.24-1.25h0c-3.82,0-4.13,4.94-4.13,5v53.49c0,2.2.52,3.77,1.56,4.68A3.9,3.9,0,0,0,65.53,136Z"/><path class="cls-1" d="M73.51,136a6.53,6.53,0,0,0,.87-.05,3.62,3.62,0,0,0,3.34-3c.29-1.64-.39-3.44-1.52-4a2.05,2.05,0,0,0-2.48.3,2,2,0,0,0-.59,2.07,1.25,1.25,0,0,0,1.44.72,1.06,1.06,0,0,0-.06-2.09.27.27,0,0,0-.28.27.27.27,0,0,0,.26.28c.09,0,.38.07.38.57a.47.47,0,0,1-.41.44.73.73,0,0,1-.83-.42,1.46,1.46,0,0,1,.47-1.44,1.52,1.52,0,0,1,1.85-.21c.91.46,1.47,2,1.23,3.43a3,3,0,0,1-2.87,2.58,3.83,3.83,0,0,1-3.11-.71c-.92-.82-1.39-2.29-1.39-4.38V75.8c0-.17.29-4.54,3.58-4.54h0a3.51,3.51,0,0,1,2.8,1.06,3.88,3.88,0,0,1,.61,3.08,2.1,2.1,0,0,1-1.56,1.77,1.68,1.68,0,0,1-1.8-.61,1.15,1.15,0,0,1,1.41-1.81c.35.16.55.39.56.65a.73.73,0,0,1-.36.65.5.5,0,0,1-.54,0,.27.27,0,0,0-.37.11.27.27,0,0,0,.1.37,1,1,0,0,0,1.1,0A1.27,1.27,0,0,0,76,75.37a1.32,1.32,0,0,0-.88-1.12A1.69,1.69,0,0,0,73,76.9a2.25,2.25,0,0,0,2.36.81,2.66,2.66,0,0,0,2-2.21A4.32,4.32,0,0,0,76.63,72a4.05,4.05,0,0,0-3.22-1.25h0c-3.82,0-4.13,5-4.13,5.08v54.48c0,2.26.53,3.87,1.58,4.79A3.92,3.92,0,0,0,73.51,136Z"/><path class="cls-1" d="M61.55,77a.28.28,0,0,0,.28-.24c0-.21.49-5-1.51-7.19a3.3,3.3,0,0,0-2.56-1.11,4,4,0,0,0-3.23,1.29,4.46,4.46,0,0,0-.81,3.65,2.65,2.65,0,0,0,2,2.17,2.26,2.26,0,0,0,2.38-.79,1.76,1.76,0,0,0,.13-2.2,1.79,1.79,0,0,0-2.2-.41,1.32,1.32,0,0,0-.89,1.1,1.27,1.27,0,0,0,.61,1.13,1.1,1.1,0,0,0,1.12,0,.27.27,0,0,0,.1-.37.27.27,0,0,0-.37-.11.54.54,0,0,1-.56,0,.74.74,0,0,1-.35-.63c0-.25.21-.47.57-.63a1.24,1.24,0,0,1,1.54.25,1.2,1.2,0,0,1-.14,1.52,1.69,1.69,0,0,1-1.81.6,2.11,2.11,0,0,1-1.55-1.73A4,4,0,0,1,55,70.1,3.5,3.5,0,0,1,57.76,69a2.76,2.76,0,0,1,2.15.93c1.84,2,1.37,6.71,1.37,6.76a.27.27,0,0,0,.24.3Z"/><path class="cls-1" d="M28.36,136h.41c8.26-.29,8.56-11.35,8.46-14.73-.19-5.89,0-58.56,0-59.09,0-.06-.17-5.49-4.52-5.75A5,5,0,0,0,27,62.12a2.67,2.67,0,0,0,2.24,2.48A2.49,2.49,0,0,0,32,63.31,2.07,2.07,0,0,0,31.89,61a2,2,0,0,0-2.23-.33,1.54,1.54,0,0,0-1,2,1.24,1.24,0,0,0,1.64.77.28.28,0,0,0-.18-.52.69.69,0,0,1-.94-.43,1,1,0,0,1,.71-1.25,1.51,1.51,0,0,1,1.64.18,1.55,1.55,0,0,1,0,1.73,2,2,0,0,1-2.14,1,2.15,2.15,0,0,1-1.78-2,4.78,4.78,0,0,1,1.18-3.83,4.84,4.84,0,0,1,3.93-1.29c3.85.23,4,5,4,5.2,0,.53-.18,53.21,0,59.1.1,3.26-.18,13.9-7.93,14.18a7.09,7.09,0,0,1-6.34-2.73,7.94,7.94,0,0,1-1-7.15,5.12,5.12,0,0,1,4-3.38A5,5,0,0,1,30,123.49a4.12,4.12,0,0,1,.59,4.49A2.72,2.72,0,0,1,28,129.64,2.26,2.26,0,0,1,25.68,128a1.92,1.92,0,0,1,.9-2.09,1.16,1.16,0,0,1,1.64.21.7.7,0,0,1-.11,1,1,1,0,0,1-.77.25.9.9,0,0,1-.47-.27.26.26,0,0,0-.25-.18.27.27,0,0,0-.28.27c0,.23.33.5.56.61a1.4,1.4,0,0,0,1.55-.25,1.25,1.25,0,0,0,.23-1.7,1.7,1.7,0,0,0-2.37-.39,2.46,2.46,0,0,0-1.16,2.69,2.78,2.78,0,0,0,2.77,2.06,3.26,3.26,0,0,0,3.18-2,4.68,4.68,0,0,0-.67-5.1,5.57,5.57,0,0,0-5.19-1.5,5.67,5.67,0,0,0-4.36,3.74A8.49,8.49,0,0,0,22,133,7.47,7.47,0,0,0,28.36,136Z"/><path class="cls-1" d="M33.12,124.62a3.83,3.83,0,0,0,2.38-.81,3.66,3.66,0,0,0,1.4-3.4,3.31,3.31,0,0,0-2-2.63,2.71,2.71,0,0,0-2.7.35,2.61,2.61,0,0,0-1,2.54,2.22,2.22,0,0,0,1.67,1.7,1.59,1.59,0,0,0,1.91-2.13,1.11,1.11,0,0,0-1.12-.56.28.28,0,0,0-.26.29.27.27,0,0,0,.29.26.56.56,0,0,1,.6.27,1,1,0,0,1-1.28,1.34,1.66,1.66,0,0,1-1.27-1.28,2,2,0,0,1,.82-2,2.17,2.17,0,0,1,2.16-.28,2.8,2.8,0,0,1,1.71,2.21,3.12,3.12,0,0,1-1.19,2.88,3.6,3.6,0,0,1-3.79.31c-3.11-1.32-2.28-6-2.28-6.07,0-.49-.07-43.73,0-49.66a6.72,6.72,0,0,0-3.47-6.38,4.83,4.83,0,0,0-5.11.3,4.53,4.53,0,0,0-1.69,4.4,3.71,3.71,0,0,0,2.31,3,3.34,3.34,0,0,0,3.61-1,2.55,2.55,0,0,0,.34-3A2.07,2.07,0,0,0,22.56,64a1.28,1.28,0,0,0-.9,1.42,1.07,1.07,0,0,0,.84.92,1.11,1.11,0,0,0,1-.28.27.27,0,0,0-.07-.38.27.27,0,0,0-.36.05.77.77,0,0,1-.53,0,.6.6,0,0,1-.33-.48.76.76,0,0,1,.56-.79c.53-.2,1.3,0,1.87,1a2,2,0,0,1-.28,2.35,2.81,2.81,0,0,1-3,.88,3.17,3.17,0,0,1-1.94-2.57,4,4,0,0,1,1.49-3.87,4.29,4.29,0,0,1,4.52-.24A6.1,6.1,0,0,1,28.56,68c-.08,5.94,0,49.19,0,49.62,0,.16-.9,5.13,2.6,6.62A5.11,5.11,0,0,0,33.12,124.62Z"/><path class="cls-1" d="M34.64,67.62a2.6,2.6,0,0,0,2.6-2.21A.28.28,0,0,0,37,65.1a.29.29,0,0,0-.31.24,2,2,0,0,1-2.18,1.73,1.72,1.72,0,0,1-1.73-1.18,1.36,1.36,0,0,1,.61-1.54,1,1,0,0,1,1.09-.14.62.62,0,0,1,.35.47.33.33,0,0,1-.18.29.66.66,0,0,1-.51.12.52.52,0,0,1-.27-.25.28.28,0,0,0-.5.23,1,1,0,0,0,.6.54,1.14,1.14,0,0,0,1-.17.89.89,0,0,0,.44-.77,1.15,1.15,0,0,0-.64-1,1.61,1.61,0,0,0-1.65.16A1.91,1.91,0,0,0,32.25,66a2.25,2.25,0,0,0,2.24,1.59Z"/><path class="cls-1" d="M39.85,64.23a2.47,2.47,0,0,0,.79-.13,1.92,1.92,0,0,0,1.41-2.49,1.54,1.54,0,0,0-1.88-1.16,1.3,1.3,0,0,0-1,1.56,1,1,0,0,0,1.13.78c.61-.13.8-.49.77-.78a.73.73,0,0,0-.74-.61.28.28,0,0,0,0,.55c.12,0,.19.07.19.11s-.09.14-.33.19a.46.46,0,0,1-.49-.38c-.08-.3.06-.7.67-.9s1,.29,1.19.81a1.39,1.39,0,0,1-1.06,1.8,1.94,1.94,0,0,1-2-.45c-1.27-1.12-1.77-3.5-1.26-6.07a5.81,5.81,0,0,1,3.25-4.28,5.63,5.63,0,0,1,5.06.06,2.78,2.78,0,0,1,1.61,2.73,4.29,4.29,0,0,1-2.25,3.5,2.51,2.51,0,0,1-2.75-.58,1.45,1.45,0,0,1-.27-1.71c.43-.82,1-.9,1.37-.73.2.1.36.3.28.49a.63.63,0,0,1-.29.33.37.37,0,0,1-.25,0,.29.29,0,0,0-.38.11.27.27,0,0,0,.11.37.91.91,0,0,0,.7.06,1.05,1.05,0,0,0,.61-.63.94.94,0,0,0-.54-1.2c-.63-.31-1.52-.13-2.1,1a2,2,0,0,0,.35,2.33,3,3,0,0,0,3.36.73,4.88,4.88,0,0,0,2.6-4,3.36,3.36,0,0,0-1.9-3.25,6.24,6.24,0,0,0-5.56-.07A6.46,6.46,0,0,0,36.7,57c-.54,2.75,0,5.33,1.43,6.58A2.57,2.57,0,0,0,39.85,64.23Z"/><path class="cls-1" d="M53,136c4.55,0,6.62-2.08,7.55-3.85a8.13,8.13,0,0,0-.33-7.94,5.69,5.69,0,0,0-5.49-2.39,5,5,0,0,0-3.87,3.93c-.62,2.36.12,4.37,2,5.38a3.49,3.49,0,0,0,4.2-.38,2.72,2.72,0,0,0,.48-3.31,2.63,2.63,0,0,0-3.17-.92c-1.46.45-1.82,1.39-1.68,2.12a2.29,2.29,0,0,0,2.54,1.65.28.28,0,0,0,.25-.3.29.29,0,0,0-.3-.25,1.76,1.76,0,0,1-2-1.2c-.13-.65.36-1.2,1.3-1.49a2.13,2.13,0,0,1,2.54.68,2.18,2.18,0,0,1-.42,2.65,3,3,0,0,1-3.53.26c-1.62-.87-2.26-2.65-1.71-4.74a4.41,4.41,0,0,1,3.43-3.54,5.14,5.14,0,0,1,5,2.17,7.64,7.64,0,0,1,.3,7.36c-.88,1.66-2.87,3.63-7.29,3.56a7.26,7.26,0,0,1-5.48-2.26c-2.83-3.13-2.43-8.46-2.43-8.51,0-.4.41-38.08,0-48.48-.28-7.18.37-24.29,12.43-28.06,10.45-3.27,16.76,2.61,19,8.63A12.59,12.59,0,0,1,75,67.3a8.89,8.89,0,0,1-6.91,4.28c-3.11.26-5.56-.44-7.29-2.07a7.89,7.89,0,0,1-2.36-5.85,7.09,7.09,0,0,1,3-5.43,5,5,0,0,1,4.6-.6,4.09,4.09,0,0,1,2.85,4.15A3.35,3.35,0,0,1,66.8,65a2.34,2.34,0,0,1-2.79-.9,1.5,1.5,0,0,1,.38-1.88c.81-.71,1.6-.65,2-.29a.57.57,0,0,1,.09.79.92.92,0,0,1-.6.42A.52.52,0,0,1,65.5,63a.27.27,0,0,0-.39,0,.29.29,0,0,0,0,.39,1.11,1.11,0,0,0,.79.29,1.42,1.42,0,0,0,1-.64,1.09,1.09,0,0,0-.15-1.52,2,2,0,0,0-2.72.28,2,2,0,0,0-.5,2.55,2.86,2.86,0,0,0,3.41,1.17,3.87,3.87,0,0,0,2.49-3.75,4.67,4.67,0,0,0-3.2-4.7,5.48,5.48,0,0,0-5.1.66,7.7,7.7,0,0,0-3.2,5.87,8.43,8.43,0,0,0,2.53,6.27c1.83,1.72,4.49,2.48,7.71,2.21a9.39,9.39,0,0,0,7.33-4.53,13.12,13.12,0,0,0,1.29-11c-2.31-6.25-8.86-12.35-19.67-9C44.69,51.46,44,68.88,44.3,76.19c.41,10.39,0,48.05,0,48.43,0,.21-.42,5.61,2.58,8.91A7.7,7.7,0,0,0,52.75,136Z"/><path class="cls-1" d="M53.08,66.4a2.73,2.73,0,1,1,2.72,2.73A2.72,2.72,0,0,1,53.08,66.4Zm.55,0a2.18,2.18,0,1,0,2.17-2.17A2.17,2.17,0,0,0,53.63,66.4Z"/><path class="cls-1" d="M36.9,79.87a3.88,3.88,0,1,1,3.88,3.88A3.88,3.88,0,0,1,36.9,79.87Zm.55,0a3.33,3.33,0,1,0,3.33-3.33A3.34,3.34,0,0,0,37.45,79.87Z"/><path class="cls-1" d="M36.9,87.07A3.88,3.88,0,1,1,40.78,91,3.88,3.88,0,0,1,36.9,87.07Zm.55,0a3.33,3.33,0,1,0,3.33-3.32A3.34,3.34,0,0,0,37.45,87.07Z"/><path class="cls-1" d="M36.9,94.27a3.88,3.88,0,1,1,3.88,3.88A3.88,3.88,0,0,1,36.9,94.27Zm.55,0A3.33,3.33,0,1,0,40.78,91,3.34,3.34,0,0,0,37.45,94.27Z"/><path class="cls-1" d="M36.9,101.48a3.88,3.88,0,1,1,3.88,3.88A3.88,3.88,0,0,1,36.9,101.48Zm.55,0a3.33,3.33,0,1,0,3.33-3.33A3.34,3.34,0,0,0,37.45,101.48Z"/><path class="cls-1" d="M36.9,108.68a3.88,3.88,0,1,1,3.88,3.88A3.88,3.88,0,0,1,36.9,108.68Zm.55,0a3.33,3.33,0,1,0,3.33-3.32A3.34,3.34,0,0,0,37.45,108.68Z"/><path class="cls-1" d="M36.9,115.88a3.88,3.88,0,1,1,3.88,3.88A3.88,3.88,0,0,1,36.9,115.88Zm.55,0a3.33,3.33,0,1,0,3.33-3.32A3.34,3.34,0,0,0,37.45,115.88Z"/><path class="cls-1" d="M38.91,121.08a1.87,1.87,0,1,1,1.87,1.86A1.87,1.87,0,0,1,38.91,121.08Zm.55,0a1.32,1.32,0,1,0,1.32-1.32A1.32,1.32,0,0,0,39.46,121.08Z"/><path class="cls-1" d="M38.91,124.34a1.87,1.87,0,1,1,1.87,1.87A1.87,1.87,0,0,1,38.91,124.34Zm.55,0A1.32,1.32,0,1,0,40.78,123,1.32,1.32,0,0,0,39.46,124.34Z"/><path class="cls-1" d="M38.91,127.61a1.87,1.87,0,1,1,1.87,1.86A1.87,1.87,0,0,1,38.91,127.61Zm.55,0a1.32,1.32,0,1,0,1.32-1.32A1.32,1.32,0,0,0,39.46,127.61Z"/><path class="cls-1" d="M38.91,130.87a1.87,1.87,0,1,1,1.87,1.87A1.87,1.87,0,0,1,38.91,130.87Zm.55,0a1.32,1.32,0,1,0,1.32-1.32A1.32,1.32,0,0,0,39.46,130.87Z"/><path class="cls-1" d="M38.91,134.13A1.87,1.87,0,1,1,40.78,136,1.87,1.87,0,0,1,38.91,134.13Zm.55,0a1.32,1.32,0,1,0,1.32-1.31A1.32,1.32,0,0,0,39.46,134.13Z"/><path class="cls-1" d="M67,42.31a14.85,14.85,0,0,0,4.4-.66.55.55,0,0,0-.35-1c-.08,0-7.49,2.48-11-2.72-1.51-2.21-1.46-4.51.13-6.16a4.27,4.27,0,0,1,5.19-.94,2.51,2.51,0,0,1,1.11,3.43,2.28,2.28,0,0,1-3.15.88s-1.18-.72-.88-1.7a1.17,1.17,0,0,1,1.06-.85h0c.47,0,.82.4,1,1.09a.55.55,0,0,0,1.07-.27,2.24,2.24,0,0,0-2-1.92,2.28,2.28,0,0,0-2.16,1.63c-.55,1.81,1.32,2.94,1.41,3a3.39,3.39,0,0,0,4.62-1.3,3.59,3.59,0,0,0-1.47-4.91A5.39,5.39,0,0,0,59.37,31c-1.53,1.58-2.4,4.4-.25,7.54A9.11,9.11,0,0,0,67,42.31Z"/><path class="cls-1" d="M70.59,41.9a.57.57,0,0,0,.18,0c.08,0,8.22-2.9,7.79-10-.24-3.81-2.65-5.5-4.84-5.81a5.37,5.37,0,0,0-5.85,3.16A3.58,3.58,0,0,0,69.71,34a3.39,3.39,0,0,0,4.44-1.78c0-.12.84-2.17-.71-3.26a2.28,2.28,0,0,0-2.71,0,2.22,2.22,0,0,0-.42,2.75A.55.55,0,0,0,71,32a.56.56,0,0,0,.29-.73c-.29-.65-.25-1.17.11-1.46a1.15,1.15,0,0,1,1.37,0c.85.6.34,1.91.34,1.92a2.27,2.27,0,0,1-3,1.2,2.5,2.5,0,0,1-1.23-3.39,4.27,4.27,0,0,1,4.67-2.44c2.27.32,3.72,2.11,3.89,4.79.39,6.29-7,8.89-7,8.92a.54.54,0,0,0-.34.69A.56.56,0,0,0,70.59,41.9Z"/><path class="cls-1" d="M49.45,46.86a4.67,4.67,0,0,0,3.1-1.07,4.58,4.58,0,0,0,1.55-4.11,4.41,4.41,0,0,0-1.89-2.92,4.07,4.07,0,0,0-3.09-.65,3.44,3.44,0,0,0-2.45,2A3.09,3.09,0,0,0,46.89,43a2.59,2.59,0,0,0,2.29,1.36,2.42,2.42,0,0,0,2-1.41.54.54,0,0,0-.26-.73.55.55,0,0,0-.73.26,1.33,1.33,0,0,1-1.1.78,1.46,1.46,0,0,1-1.29-.83,2,2,0,0,1-.15-1.89,2.32,2.32,0,0,1,1.67-1.35,3,3,0,0,1,2.25.48A3.31,3.31,0,0,1,53,41.87,3.46,3.46,0,0,1,51.84,45c-.76.64-2.16,1.24-4.56.41a5.88,5.88,0,0,1-3.77-5.54c0-2.56,1.57-4.62,4.36-5.62,6.5-2.35,11,3.89,11,3.95a.56.56,0,0,0,.77.14.57.57,0,0,0,.13-.77c0-.07-5-7-12.29-4.36-3.21,1.16-5.11,3.65-5.09,6.67a7,7,0,0,0,4.51,6.57A7.72,7.72,0,0,0,49.45,46.86Z"/><path class="cls-1" d="M27.85,56.26a2.83,2.83,0,0,0,2.71-2.47,2.36,2.36,0,0,0-1.73-2.9,2.14,2.14,0,0,0-2.18.6,2,2,0,0,0-.34,2,1.84,1.84,0,0,0,1.56,1.17.54.54,0,0,0,.61-.48.55.55,0,0,0-.48-.61.78.78,0,0,1-.67-.48.94.94,0,0,1,.15-.9A1.08,1.08,0,0,1,28.59,52a1.3,1.3,0,0,1,.88,1.64,1.69,1.69,0,0,1-1.85,1.54,3.32,3.32,0,0,1-2.74-1.72,2.9,2.9,0,0,1,.66-2.89c1.7-2.31,7.31-.53,11,.64l1.48.46a5,5,0,0,0,4.78-.83,6.31,6.31,0,0,0,1.86-5.7,5.43,5.43,0,0,0-3.25-4.42,5,5,0,0,0-5,.66A3.55,3.55,0,0,0,35,45.27a3.23,3.23,0,0,0,2.57,2.38,3,3,0,0,0,2.61-1,2.24,2.24,0,0,0,.35-2.12A2.11,2.11,0,0,0,38,43.08a.55.55,0,0,0-.41.66.53.53,0,0,0,.65.41,1,1,0,0,1,1.23.73A1.16,1.16,0,0,1,39.32,46a1.91,1.91,0,0,1-1.66.57A2.19,2.19,0,0,1,36.05,45a2.44,2.44,0,0,1,1.06-2.74,3.89,3.89,0,0,1,3.9-.52,4.3,4.3,0,0,1,2.58,3.55A5.24,5.24,0,0,1,42.11,50a3.85,3.85,0,0,1-3.76.62l-1.46-.46c-4.25-1.34-10.06-3.18-12.24-.25-1.3,1.77-1.14,3.14-.78,4a4.4,4.4,0,0,0,3.61,2.38Z"/><path class="cls-1" d="M13.73,64.94a3.15,3.15,0,0,0,1-.16,4.56,4.56,0,0,0,2.7-3,3.27,3.27,0,0,0-.58-3,2.71,2.71,0,0,0-2.83-1.06,2.64,2.64,0,0,0-1.93,2.05,1.64,1.64,0,0,0,1.12,2c.49.13,1.05.08,1.23-.36a.55.55,0,0,0-.29-.72.57.57,0,0,0-.51,0,.57.57,0,0,1-.36-.16.66.66,0,0,1-.11-.6,1.55,1.55,0,0,1,1.13-1.17,1.64,1.64,0,0,1,1.71.69,2.2,2.2,0,0,1,.36,2,3.48,3.48,0,0,1-2,2.24A4.11,4.11,0,0,1,11,62.81,3.52,3.52,0,0,1,9.7,59.43a3.83,3.83,0,0,1,1.58-2.71A7.62,7.62,0,0,1,17,55.9c3.57.69,6.17,0,7.31-2.09a.55.55,0,0,0-.21-.75.56.56,0,0,0-.75.21c-.89,1.6-3.07,2.15-6.14,1.55a8.76,8.76,0,0,0-6.59,1,4.89,4.89,0,0,0-2,3.45,4.63,4.63,0,0,0,1.66,4.38A5.68,5.68,0,0,0,13.73,64.94Z"/><path class="cls-1" d="M19.36,55.81a.61.61,0,0,0,.31-.09.55.55,0,0,0,.14-.76.67.67,0,0,0-.46-.27c-1.38-.36-3-1.09-2.91-2.5a2.46,2.46,0,0,1,1.44-2.13,2,2,0,0,1,2.06.17,1.27,1.27,0,0,1,.57,1.34,1.61,1.61,0,0,1-1.21,1.19.85.85,0,0,1-1-.55.59.59,0,0,1,.17-.75.54.54,0,0,0,.2-.75.55.55,0,0,0-.75-.2,1.64,1.64,0,0,0-.65,2.1,2,2,0,0,0,2.27,1.22,2.72,2.72,0,0,0,2.05-2,2.37,2.37,0,0,0-1-2.45,3.11,3.11,0,0,0-3.19-.3,3.53,3.53,0,0,0-2.07,3.06c-.08,1.19.5,2.78,3.72,3.63l.08,0A.49.49,0,0,0,19.36,55.81Z"/><path class="cls-1" d="M78,26.65h0a.54.54,0,0,0,.53-.56c0-.45-.38-11.1-7.27-11.85-3-.33-5.13.91-5.69,3.3A4.72,4.72,0,0,0,68.23,23a3.32,3.32,0,0,0,3.56-.59,2.76,2.76,0,0,0,.85-2.72,2.1,2.1,0,0,0-1.75-1.42c-1.8-.29-2.59.48-2.72,1.3a1.68,1.68,0,0,0,1.32,1.91.55.55,0,1,0,.18-1.08.6.6,0,0,1-.42-.65c.07-.38.62-.53,1.46-.39a1,1,0,0,1,.88.66,1.7,1.7,0,0,1-.55,1.6,2.24,2.24,0,0,1-2.43.35,3.64,3.64,0,0,1-1.93-4.19c.43-1.84,2.07-2.73,4.5-2.47C77.12,16,77.47,26,77.47,26.12A.55.55,0,0,0,78,26.65Z"/><path class="cls-1" d="M78.41,16.59h0A.55.55,0,0,0,79,16c0-.35-.29-8.42-5.56-9-2.73-.3-4.07,1.14-4.41,2.58A3.69,3.69,0,0,0,71,13.87a2.62,2.62,0,0,0,2.81-.47,2.21,2.21,0,0,0,.67-2.18,1.69,1.69,0,0,0-1.42-1.15c-1.45-.24-2.09.43-2.19,1.08A1.4,1.4,0,0,0,72,12.74a.55.55,0,0,0,.63-.45.56.56,0,0,0-.45-.64c-.12,0-.22-.19-.2-.32s.42-.26.93-.18a.61.61,0,0,1,.55.4,1.14,1.14,0,0,1-.37,1,1.52,1.52,0,0,1-1.68.23,2.58,2.58,0,0,1-1.36-3c.31-1.29,1.48-1.92,3.22-1.73,4.32.47,4.58,7.85,4.58,7.93A.54.54,0,0,0,78.41,16.59Z"/><path class="cls-1" d="M78.41,8.18h0A.54.54,0,0,0,79,7.62c0-.29-.24-7.1-4.71-7.59-2.34-.25-3.49,1-3.78,2.22A3.14,3.14,0,0,0,72.24,5.9a2.26,2.26,0,0,0,2.43-.4,1.92,1.92,0,0,0,.58-1.91,1.49,1.49,0,0,0-1.25-1c-1.28-.2-1.84.4-1.93,1a1.25,1.25,0,0,0,1,1.43.55.55,0,0,0,.18-1.08.2.2,0,0,1-.09-.17c0-.05.21-.15.67-.07s.37.21.38.26a.84.84,0,0,1-.28.79,1.17,1.17,0,0,1-1.3.17A2,2,0,0,1,71.54,2.5c.25-1,1.19-1.52,2.59-1.37,3.52.38,3.73,6.46,3.73,6.52A.54.54,0,0,0,78.41,8.18Z"/><path class="cls-1" d="M40.52,199.21a.54.54,0,0,0,.55-.54v-.11c.2-3.24.41-14.27-5.38-20.43-3.56-3.79-9.18-5.56-14.63-7.26-4.53-1.42-8.81-2.77-11.52-5.15a13,13,0,0,1-4.3-10.12c.07-3.28,1.28-6.19,3.25-7.79A8.52,8.52,0,0,1,15.37,146a8.35,8.35,0,0,1,5.72,3.79,7.76,7.76,0,0,1,.19,7.49,6.15,6.15,0,0,1-5.44,3.23c-2.55.07-4.38-1-4.85-2.8a3.53,3.53,0,0,1,1.75-4c1.4-.72,2.35-.2,2.77.52a2.28,2.28,0,0,1-.85,3c-.66.43-1.2.56-1.49.36a.87.87,0,0,1-.25-.87c0-.09.09-.32.27-.34a.55.55,0,1,0-.17-1.09,1.44,1.44,0,0,0-1.17,1.18,2,2,0,0,0,.69,2c.4.28,1.29.61,2.72-.34a3.37,3.37,0,0,0,1.2-4.51,3,3,0,0,0-4.22-.94A4.64,4.64,0,0,0,9.93,158c.61,2.37,2.82,3.73,5.94,3.63a7.21,7.21,0,0,0,6.38-3.81,8.87,8.87,0,0,0-.22-8.58,9.45,9.45,0,0,0-6.48-4.3,9.57,9.57,0,0,0-7.74,2c-2.22,1.8-3.59,5-3.66,8.63a14.18,14.18,0,0,0,4.67,11c2.89,2.53,7.28,3.91,11.92,5.37,5.31,1.66,10.8,3.38,14.16,7,5.49,5.84,5.28,16.49,5.08,19.61,0,.09,0,.15,0,.17A.55.55,0,0,0,40.52,199.21Z"/><path class="cls-1" d="M29.28,161.12a6.2,6.2,0,0,0,1.63-.23,4.72,4.72,0,0,0,3.55-4.68,3.56,3.56,0,0,0-2.82-3.57,3.68,3.68,0,0,0-4.16,1.59,3.08,3.08,0,0,0,.25,3.61,2.57,2.57,0,0,0,2.5.78,2.42,2.42,0,0,0,1.83-1.5,1.73,1.73,0,0,0-.48-1.74.55.55,0,1,0-.8.76c.33.34.26.58.23.65a1.33,1.33,0,0,1-1,.75,1.46,1.46,0,0,1-1.43-.43,2,2,0,0,1-.13-2.32,2.61,2.61,0,0,1,3-1.07,2.47,2.47,0,0,1,1.95,2.51,3.62,3.62,0,0,1-2.73,3.6c-2.89.76-4.67-.75-5.93-5.05a14.93,14.93,0,0,0-2.53-5.29.55.55,0,0,0-.83.72h0a14,14,0,0,1,2.3,4.88C24.43,157.77,25.85,161.12,29.28,161.12Z"/><path class="cls-1" d="M28.4,152.39a4.22,4.22,0,0,0,1.93-.47c1.47-.76,1.74-2.67,1.25-4.08A3,3,0,0,0,28,145.73c-2.06.4-2.71,1.81-2.64,2.89A2.52,2.52,0,0,0,27.8,151a1.88,1.88,0,0,0,1.95-.89,1.53,1.53,0,0,0-.15-1.65,1.77,1.77,0,0,0-1.89-.56A.54.54,0,1,0,28,149a.77.77,0,0,1,.77.17.43.43,0,0,1,.05.47c-.12.22-.46.33-.91.31a1.46,1.46,0,0,1-1.38-1.37c0-.67.4-1.48,1.76-1.74a1.92,1.92,0,0,1,2.29,1.39,2.27,2.27,0,0,1-.71,2.74c-1.58.82-3.34.26-5.86-1.86a20.79,20.79,0,0,0-5.19-3,.55.55,0,0,0-.71.32.55.55,0,0,0,.32.71,19.92,19.92,0,0,1,4.88,2.81C24.71,151.14,26.51,152.39,28.4,152.39Z"/><path class="cls-1" d="M39.19,185.65l.16,0a.56.56,0,0,0,.37-.69,21.86,21.86,0,0,0-5.08-8.67,47.78,47.78,0,0,1-3.76-4.87,8.58,8.58,0,0,1-.19-9.11c1.17-2,2.95-3.16,4.64-3a5,5,0,0,1,4.32,3.5,3.09,3.09,0,0,1-.51,3.3,3.27,3.27,0,0,1-3.36.61,2.06,2.06,0,0,1-1.32-1.81,1.89,1.89,0,0,1,1.09-2,.82.82,0,0,1,1,.25c.17.25.13.36.11.4-.08.25-.56.49-.79.56a.54.54,0,0,0-.37.68.56.56,0,0,0,.69.37,2.44,2.44,0,0,0,1.51-1.24,1.47,1.47,0,0,0-.24-1.38,1.88,1.88,0,0,0-2.22-.68,3,3,0,0,0-1.83,3.15,3.17,3.17,0,0,0,2,2.75,4.4,4.4,0,0,0,4.51-.78,4.1,4.1,0,0,0,.85-4.48,6.11,6.11,0,0,0-5.29-4.26c-2.1-.16-4.29,1.21-5.67,3.57A9.66,9.66,0,0,0,30,172a49.77,49.77,0,0,0,3.84,5,20.27,20.27,0,0,1,4.86,8.27A.55.55,0,0,0,39.19,185.65Z"/><path class="cls-1" d="M15.5,198.17c4,0,6.24-1.71,7.4-3.2a10.21,10.21,0,0,0,1.45-8.86,7.54,7.54,0,0,0-5.88-5,6,6,0,0,0-6,2.54,6.59,6.59,0,0,0-.69,7.16,5.66,5.66,0,0,0,5.44,2.85,4,4,0,0,0,2.08-7.42,3.68,3.68,0,0,0-4.29.53,3.29,3.29,0,0,0-.78,3.89,2.55,2.55,0,0,0,2.09,1.68,2.24,2.24,0,0,0,2-1,1.63,1.63,0,0,0,.15-1.67.55.55,0,0,0-1,.49.56.56,0,0,1-.07.57,1.19,1.19,0,0,1-1,.49c-.48,0-.88-.41-1.18-1.05a2.19,2.19,0,0,1,.53-2.62,2.57,2.57,0,0,1,3-.38,3,3,0,0,1,1.37,3.18,3,3,0,0,1-3,2.18,4.61,4.61,0,0,1-4.41-2.29,5.53,5.53,0,0,1,.64-6,4.89,4.89,0,0,1,4.94-2.1,6.42,6.42,0,0,1,5,4.21A9.07,9.07,0,0,1,22,194.29c-1.52,2-4,2.92-7.18,2.77a9.91,9.91,0,0,1-8.54-5.33c-2-3.87-1.56-8.91,1.28-13.49,5.68-9.13,17-5.08,17.14-5a.55.55,0,0,0,.38-1c-.13,0-12.31-4.4-18.45,5.49C3.61,182.57,3.11,188,5.33,192.24a11,11,0,0,0,9.47,5.92Z"/><path class="cls-1" d="M39.56,198.77a.55.55,0,0,0,.55-.49c0-.47,1.07-11.56-3.22-16.56a8.27,8.27,0,0,0-8.32-2.81,6.56,6.56,0,0,0-4.94,4.91,5.39,5.39,0,0,0,1.89,5.76,4.63,4.63,0,0,0,5,.32,3.48,3.48,0,0,0,1.36-4.42,2.7,2.7,0,0,0-5.26.76,2.39,2.39,0,0,0,2.24,2.15.56.56,0,0,0,.63-.46.54.54,0,0,0-.46-.62c-.78-.13-1.29-.56-1.32-1.13s.39-1.18,1.38-1.44a1.59,1.59,0,0,1,1.77,1.16,2.4,2.4,0,0,1-.9,3.06,3.54,3.54,0,0,1-3.78-.27A4.34,4.34,0,0,1,24.71,184,5.48,5.48,0,0,1,28.84,180a7.09,7.09,0,0,1,7.21,2.46c4,4.65,3,15.63,3,15.74a.55.55,0,0,0,.49.6Z"/><path class="cls-1" d="M31.48,198.51A3.65,3.65,0,0,0,35,196.28a4.92,4.92,0,0,0-1.21-5.39c-3.31-3.13-6.67-.5-9.24,2.14a14.65,14.65,0,0,1-6.07,4.06.55.55,0,0,0,.26,1.07c.13,0,3.15-.81,6.6-4.36s5.6-4.09,7.69-2.12a3.86,3.86,0,0,1,1,4.17,2.55,2.55,0,0,1-2.68,1.55,2.51,2.51,0,0,1-2.59-1.75,1.92,1.92,0,0,1,.83-2.1,1.34,1.34,0,0,1,1.74.19c.31.42.17,1-.39,1.55a.55.55,0,0,0,0,.78.54.54,0,0,0,.78,0,2.21,2.21,0,0,0,.5-3,2.41,2.41,0,0,0-3.15-.49,3,3,0,0,0-1.37,3.3c.35,1.53,1.69,2.5,3.6,2.61Z"/><path class="cls-1" d="M41.37,199.21h0a.54.54,0,0,0,.54-.54,1.49,1.49,0,0,0,0-.17c-.19-3.12-.4-13.77,5.08-19.61,3.36-3.58,8.85-5.3,14.16-7,4.65-1.46,9-2.84,11.92-5.37a14.11,14.11,0,0,0,4.67-11c-.07-3.6-1.44-6.83-3.66-8.63a9.56,9.56,0,0,0-7.74-2,9.45,9.45,0,0,0-6.47,4.3,8.87,8.87,0,0,0-.22,8.58A7.21,7.21,0,0,0,66,161.6c3.12.1,5.34-1.26,6-3.63a4.63,4.63,0,0,0-2.32-5.28,3,3,0,0,0-4.21.94,3.36,3.36,0,0,0,1.19,4.51c1.44,1,2.33.62,2.72.34a2,2,0,0,0,.7-2,1.46,1.46,0,0,0-1.18-1.18.54.54,0,0,0-.62.46.55.55,0,0,0,.46.63c.17,0,.24.25.27.34a.89.89,0,0,1-.25.87c-.3.2-.84.07-1.49-.36a2.27,2.27,0,0,1-.85-3c.42-.72,1.37-1.24,2.77-.52a3.53,3.53,0,0,1,1.74,4c-.47,1.83-2.28,2.87-4.84,2.8a6.14,6.14,0,0,1-5.44-3.23,7.73,7.73,0,0,1,.19-7.49A8.33,8.33,0,0,1,66.53,146a8.5,8.5,0,0,1,6.86,1.82c2,1.6,3.19,4.51,3.25,7.79a13,13,0,0,1-4.29,10.12c-2.71,2.38-7,3.73-11.53,5.15-5.44,1.7-11.07,3.47-14.63,7.26-5.78,6.16-5.58,17.19-5.37,20.43v.11A.55.55,0,0,0,41.37,199.21Z"/><path class="cls-1" d="M52.62,161.12c3.42,0,4.84-3.35,5.63-6a14.25,14.25,0,0,1,2.3-4.88.54.54,0,0,0,0-.77.55.55,0,0,0-.78.05,14.83,14.83,0,0,0-2.52,5.29c-1.27,4.3-3,5.81-5.93,5.05a3.64,3.64,0,0,1-2.74-3.6,2.49,2.49,0,0,1,2-2.51,2.62,2.62,0,0,1,3,1.07,2,2,0,0,1-.13,2.32,1.48,1.48,0,0,1-1.44.43,1.35,1.35,0,0,1-1-.75c0-.07-.09-.31.23-.65a.55.55,0,1,0-.79-.76,1.73,1.73,0,0,0-.49,1.74,2.42,2.42,0,0,0,1.84,1.5,2.59,2.59,0,0,0,2.5-.78,3.12,3.12,0,0,0,.25-3.61,3.69,3.69,0,0,0-4.16-1.59,3.58,3.58,0,0,0-2.83,3.57A4.73,4.73,0,0,0,51,160.89,6.2,6.2,0,0,0,52.62,161.12Z"/><path class="cls-1" d="M53.5,152.39c1.89,0,3.68-1.25,5.13-2.47a19.73,19.73,0,0,1,4.88-2.81.55.55,0,0,0,.31-.71.54.54,0,0,0-.7-.32,20.77,20.77,0,0,0-5.2,3c-2.52,2.12-4.27,2.68-5.85,1.86a2.27,2.27,0,0,1-.71-2.74,1.92,1.92,0,0,1,2.29-1.39c1.36.26,1.8,1.07,1.75,1.74A1.45,1.45,0,0,1,54,149.92c-.46,0-.8-.09-.91-.31a.43.43,0,0,1,.05-.47.75.75,0,0,1,.76-.17.55.55,0,0,0,.26-1.06,1.76,1.76,0,0,0-1.89.56,1.53,1.53,0,0,0-.15,1.65,1.86,1.86,0,0,0,1.94.89,2.53,2.53,0,0,0,2.41-2.39c.07-1.08-.58-2.49-2.64-2.89a3,3,0,0,0-3.54,2.11c-.49,1.41-.22,3.32,1.24,4.08A4.23,4.23,0,0,0,53.5,152.39Z"/><path class="cls-1" d="M42.71,185.65a.54.54,0,0,0,.52-.39A20.49,20.49,0,0,1,48.09,177a48.33,48.33,0,0,0,3.84-5,9.66,9.66,0,0,0,.23-10.27c-1.39-2.36-3.57-3.73-5.68-3.57a6.11,6.11,0,0,0-5.28,4.26,4.08,4.08,0,0,0,.85,4.48,4.38,4.38,0,0,0,4.5.78,3.16,3.16,0,0,0,2-2.75,3,3,0,0,0-1.83-3.15,1.89,1.89,0,0,0-2.23.68,1.53,1.53,0,0,0-.24,1.38,2.45,2.45,0,0,0,1.52,1.24.54.54,0,0,0,.68-.37.54.54,0,0,0-.36-.68c-.28-.09-.72-.32-.8-.56,0,0-.05-.15.11-.4a.82.82,0,0,1,1-.25,1.88,1.88,0,0,1,1.09,2,2.05,2.05,0,0,1-1.31,1.81,3.27,3.27,0,0,1-3.36-.61,3.07,3.07,0,0,1-.52-3.3,5,5,0,0,1,4.33-3.5c1.7-.13,3.47,1,4.64,3A8.6,8.6,0,0,1,51,171.4a50.48,50.48,0,0,1-3.76,4.87,21.63,21.63,0,0,0-5.08,8.67.55.55,0,0,0,.37.69Z"/><path class="cls-1" d="M66.4,198.17h.7a11,11,0,0,0,9.46-5.92c2.22-4.22,1.73-9.67-1.32-14.58-6.15-9.89-18.33-5.53-18.45-5.49a.56.56,0,0,0-.33.71.56.56,0,0,0,.71.33c.46-.17,11.46-4.09,17.13,5,2.84,4.58,3.32,9.62,1.29,13.49a9.92,9.92,0,0,1-8.54,5.33c-3.18.15-5.66-.81-7.18-2.77a9,9,0,0,1-1.27-7.86,6.42,6.42,0,0,1,5-4.21,4.9,4.9,0,0,1,4.95,2.1,5.5,5.5,0,0,1,.63,6,4.6,4.6,0,0,1-4.4,2.29,2.87,2.87,0,0,1-1.63-5.36,2.57,2.57,0,0,1,3,.38,2.19,2.19,0,0,1,.53,2.62,1.56,1.56,0,0,1-1.19,1.05,1.17,1.17,0,0,1-1-.49.57.57,0,0,1-.08-.57.54.54,0,0,0-.24-.73.55.55,0,0,0-.74.24,1.63,1.63,0,0,0,.14,1.67,2.25,2.25,0,0,0,2,1,2.55,2.55,0,0,0,2.09-1.68,3.31,3.31,0,0,0-.79-3.89,3.68,3.68,0,0,0-4.29-.53,4,4,0,0,0,2.08,7.42,5.66,5.66,0,0,0,5.45-2.85,6.58,6.58,0,0,0-.7-7.16,6,6,0,0,0-6-2.54,7.57,7.57,0,0,0-5.89,5A10.22,10.22,0,0,0,59,195C60.15,196.46,62.36,198.17,66.4,198.17Z"/><path class="cls-1" d="M42.33,198.77h.06a.55.55,0,0,0,.49-.6c0-.11-1-11.09,3-15.74A7.1,7.1,0,0,1,53.05,180,5.49,5.49,0,0,1,57.19,184a4.33,4.33,0,0,1-1.46,4.65A3.52,3.52,0,0,1,52,189a2.4,2.4,0,0,1-.9-3.06,1.59,1.59,0,0,1,1.77-1.16c1,.26,1.4.91,1.37,1.44s-.53,1-1.32,1.13a.53.53,0,0,0-.45.62.54.54,0,0,0,.62.46,2.41,2.41,0,0,0,2.25-2.15,2.7,2.7,0,0,0-5.26-.76,3.46,3.46,0,0,0,1.36,4.42,4.61,4.61,0,0,0,5-.32,5.35,5.35,0,0,0,1.89-5.76,6.55,6.55,0,0,0-4.93-4.91A8.26,8.26,0,0,0,45,181.72c-4.3,5-3.27,16.09-3.22,16.56A.54.54,0,0,0,42.33,198.77Z"/><path class="cls-1" d="M50.41,198.51h.26c1.91-.11,3.26-1.08,3.61-2.61a3,3,0,0,0-1.37-3.3,2.42,2.42,0,0,0-3.16.49,2.21,2.21,0,0,0,.51,3,.54.54,0,0,0,.78,0,.55.55,0,0,0,0-.78c-.56-.55-.71-1.13-.4-1.55a1.34,1.34,0,0,1,1.74-.19,1.92,1.92,0,0,1,.84,2.1,2.52,2.52,0,0,1-2.6,1.75,2.54,2.54,0,0,1-2.67-1.55,3.84,3.84,0,0,1,1-4.17c2.08-2,4.31-1.35,7.68,2.12s6.47,4.33,6.6,4.36a.56.56,0,0,0,.67-.41.55.55,0,0,0-.41-.66A14.65,14.65,0,0,1,57.37,193c-2.56-2.64-5.93-5.26-9.23-2.14a4.89,4.89,0,0,0-1.21,5.39A3.63,3.63,0,0,0,50.41,198.51Z"/></g></g></svg>