<svg xmlns="http://www.w3.org/2000/svg" viewBox="0 0 277 185.74"><defs><style>.cls-1{fill:#fff;}</style></defs><title>Asset 5</title><g id="Layer_2" data-name="Layer 2"><g id="Layer_1-2" data-name="Layer 1"><path class="cls-1" d="M141.08,64.81v.12h35.4A3.54,3.54,0,0,0,180,61.4V3.54A3.54,3.54,0,0,0,176.48,0h-76A3.53,3.53,0,0,0,97,3.54V61.4a3.53,3.53,0,0,0,3.54,3.53h35.4v-.12Zm-37-7V7.07h68.89V57.86Z"/><path class="cls-1" d="M83,182.2V124.34a3.54,3.54,0,0,0-3.54-3.54h-76A3.54,3.54,0,0,0,0,124.34V182.2a3.54,3.54,0,0,0,3.53,3.54h76A3.54,3.54,0,0,0,83,182.2ZM76,178.67H7.07v-50.8H76Z"/><path class="cls-1" d="M100.52,120.8A3.55,3.55,0,0,0,97,124.34V182.2a3.55,3.55,0,0,0,3.54,3.54h76A3.55,3.55,0,0,0,180,182.2V124.34a3.55,3.55,0,0,0-3.54-3.54Zm72.42,57.87H104.06v-50.8h68.88Z"/><path class="cls-1" d="M197.5,120.8a3.54,3.54,0,0,0-3.53,3.54V182.2a3.54,3.54,0,0,0,3.53,3.54h76A3.54,3.54,0,0,0,277,182.2V124.34a3.54,3.54,0,0,0-3.53-3.54Zm72.43,57.87H201v-50.8h68.89Z"/><polygon class="cls-1" points="43.58 115.87 48.73 115.87 48.73 96.61 135.92 96.61 135.92 115.87 141.08 115.87 141.08 96.61 228.26 96.61 228.26 115.87 233.41 115.87 233.41 91.45 141.08 91.45 141.08 64.93 141.08 64.81 135.92 64.81 135.92 64.93 135.92 91.45 43.58 91.45 43.58 115.87"/></g></g></svg>