<svg xmlns="http://www.w3.org/2000/svg" viewBox="0 0 236 229.39"><defs><style>.cls-1{fill:#fff;}</style></defs><title>Asset 6</title><g id="Layer_2" data-name="Layer 2"><g id="Layer_1-2" data-name="Layer 1"><path class="cls-1" d="M63.05,0H43.72a7.3,7.3,0,0,0-7.29,7.29V36.41H7.3A7.3,7.3,0,0,0,0,43.71V63a7.31,7.31,0,0,0,7.29,7.31H36.43V99.45a7.31,7.31,0,0,0,7.29,7.3H63.05a7.31,7.31,0,0,0,7.3-7.3V70.34h29.1a7.32,7.32,0,0,0,7.3-7.31V43.71a7.31,7.31,0,0,0-7.3-7.3H70.35V7.29A7.31,7.31,0,0,0,63.05,0ZM97,46.12v14.5H65.49a4.86,4.86,0,0,0-4.86,4.86V97H46.14V65.48a4.85,4.85,0,0,0-4.86-4.86H9.72V46.12H41.28a4.85,4.85,0,0,0,4.86-4.85V9.72H60.63V41.27a4.86,4.86,0,0,0,4.86,4.85Z"/><path class="cls-1" d="M127.05,162.56v19.32a7.31,7.31,0,0,0,7.3,7.31H226.5a7.31,7.31,0,0,0,7.3-7.31V162.56a7.3,7.3,0,0,0-7.3-7.3H134.35A7.3,7.3,0,0,0,127.05,162.56Zm9.71,2.42h87.32v14.49H136.76Z"/><path class="cls-1" d="M236,63V43.71a7.31,7.31,0,0,0-7.3-7.3H136.54a7.31,7.31,0,0,0-7.29,7.31V63a7.31,7.31,0,0,0,7.29,7.31H228.7A7.32,7.32,0,0,0,236,63Zm-9.72-2.41H139V46.13h87.31Z"/><path class="cls-1" d="M180.33,115a16.85,16.85,0,0,0-16.84,16.84v.3a17,17,0,0,0,33.92,0v-.3A16.85,16.85,0,0,0,180.57,115Zm7.37,16.84v.3a7.25,7.25,0,0,1-14.5,0v-.3a7.13,7.13,0,0,1,7.13-7.12h.24A7.13,7.13,0,0,1,187.7,131.87Z"/><path class="cls-1" d="M180.33,195.41a16.85,16.85,0,0,0-16.84,16.84v.29a17,17,0,0,0,33.92,0v-.29a16.85,16.85,0,0,0-16.84-16.84Zm7.37,16.84v.29a7.25,7.25,0,0,1-14.5,0v-.29a7.14,7.14,0,0,1,7.13-7.13h.24A7.14,7.14,0,0,1,187.7,212.25Z"/><path class="cls-1" d="M21.49,215.32a13.27,13.27,0,0,0,6.15,1.56,12.16,12.16,0,0,0,8.67-3.62l17.06-17.07,17.05,17.06a12.49,12.49,0,0,0,17.4,0l10.12-10.14a7.28,7.28,0,0,0,0-10.31L77.35,172.21l20.58-20.57a7.29,7.29,0,0,0,0-10.32L84.28,127.67a7.21,7.21,0,0,0-5.16-2.16h0a7.25,7.25,0,0,0-5.17,2.14L53.37,148.22,32.79,127.63a7.22,7.22,0,0,0-5.16-2.13h0a7.18,7.18,0,0,0-5.15,2.13L8.78,141.31a7.31,7.31,0,0,0,0,10.31l20.58,20.59L11.76,189.83a7.9,7.9,0,0,0-1.51,2,12.56,12.56,0,0,0,2.07,14.81l7.18,7.19A8.37,8.37,0,0,0,21.49,215.32Zm-2.74-18.75,20.94-20.92a4.88,4.88,0,0,0,0-6.88L17.38,146.46l10.25-10.24,22.31,22.3a4.85,4.85,0,0,0,6.87,0L79.1,136.23l10.25,10.24-22.3,22.3a4.85,4.85,0,0,0,0,6.87L89.36,198,81,206.37a2.76,2.76,0,0,1-3.66,0L56.8,185.89a5,5,0,0,0-6.87,0l-20.49,20.5a2.76,2.76,0,0,1-3.24.42l-7-7A2.76,2.76,0,0,1,18.75,196.57Z"/></g></g></svg>