<svg xmlns="http://www.w3.org/2000/svg" viewBox="0 0 213.38 60.31"><defs><style>.cls-1{fill:#fff;}</style></defs><title>g9477</title><g id="Layer_2" data-name="Layer 2"><g id="svg2"><g id="g9477"><path id="path2902" class="cls-1" d="M70.56,12.62H20.47"/><path id="path2904" class="cls-1" d="M70.56,46.94H20.47"/><path id="path2906" class="cls-1" d="M193.69,30.16H143.6"/><path id="rect1358" class="cls-1" d="M70.79,0c16.68.13,33.38-.41,50,.68C128,1.87,131,3.82,135.27,7.81c6.89,6.7,9.38,17.11,8.57,26.31-.47,7.14-3.91,15-10.06,19.72a29.05,29.05,0,0,1-13.11,5.38c-10,1.33-20.2.75-30.3.94-6.53,0-13.05,0-19.58.15V0Z"/><path id="text2916" class="cls-1" d="M6.94,7.07,4.16,14.61H9.73L6.94,7.07m-1.16-2H8.11L13.88,20.2H11.75l-1.38-3.89H3.54L2.16,20.2H0L5.78,5.05"/><path id="text2920" class="cls-1" d="M4.39,47.28v5.55H7.68a3.7,3.7,0,0,0,2.44-.68,2.6,2.6,0,0,0,.8-2.1,2.55,2.55,0,0,0-.8-2.09,3.7,3.7,0,0,0-2.44-.68H4.39m0-6.23v4.57h3a3.66,3.66,0,0,0,2.23-.56,2.35,2.35,0,0,0,0-3.44,3.59,3.59,0,0,0-2.23-.57h-3m-2-1.68H7.57a5.84,5.84,0,0,1,3.62,1,3.29,3.29,0,0,1,1.26,2.77,3.48,3.48,0,0,1-.64,2.21,3,3,0,0,1-1.91,1,3.8,3.8,0,0,1,3.18,3.92,3.79,3.79,0,0,1-1.38,3.14,6.1,6.1,0,0,1-3.92,1.1H2.34V39.37"/><path id="text2924" class="cls-1" d="M200.61,22.44h2.2l4.2,6.23,4.17-6.23h2.2L208,30.37v7.22H206V30.37l-5.35-7.93"/></g></g></g></svg>