<svg xmlns="http://www.w3.org/2000/svg" viewBox="0 0 215.18 61.34"><defs><style>.cls-1{stroke:#000;stroke-miterlimit:10;}</style></defs><title>g9477</title><g id="Layer_2" data-name="Layer 2"><g id="svg2"><g id="g9477"><path id="path2902" class="cls-1" d="M71.33,13.13H21.23"/><path id="path2904" class="cls-1" d="M71.33,47.53H21.23"/><path id="path2906" class="cls-1" d="M194.53,30.73h-50.1"/><path id="rect1358" class="cls-1" d="M71.63.53c16.7.1,33.4-.4,50,.7,7.2,1.2,10.2,3.1,14.4,7.1,6.9,6.7,9.4,17.1,8.6,26.3-.5,7.1-3.9,15-10.1,19.7a30,30,0,0,1-13.1,5.4c-10,1.3-20.2.8-30.3.9-6.5,0-13.1,0-19.6.2l.1-60.3Z"/><path id="text2916" class="cls-1" d="M7.73,7.63l-2.8,7.5h5.6l-2.8-7.5m-1.2-2h2.3l5.8,15.1h-2.1l-1.4-3.9H4.33l-1.4,3.9H.73l5.8-15.1"/><path id="text2920" class="cls-1" d="M5.23,47.83v5.6h3.3a3.29,3.29,0,0,0,2.4-.7,3.16,3.16,0,0,0,0-4.2,3.29,3.29,0,0,0-2.4-.7H5.23m0-6.2v4.6h3a3.4,3.4,0,0,0,2.2-.6,2.06,2.06,0,0,0,.7-1.7,1.94,1.94,0,0,0-.7-1.7,3.4,3.4,0,0,0-2.2-.6h-3m-2.1-1.7h5.2a5.34,5.34,0,0,1,3.6,1,3.42,3.42,0,0,1,1.3,2.8,3.59,3.59,0,0,1-.6,2.2,2.94,2.94,0,0,1-1.9,1,3.64,3.64,0,0,1,2.3,1.4,4.33,4.33,0,0,1-.6,5.7,6.24,6.24,0,0,1-3.9,1.1H3.13V39.93"/><path id="text2924" class="cls-1" d="M201.43,23h2.2l4.2,6.2L212,23h2.2l-5.4,7.9v7.2h-2.1v-7.2l-5.3-7.9"/></g></g></g></svg>