<svg xmlns="http://www.w3.org/2000/svg" viewBox="0 0 224.38 61.24"><defs><style>.cls-1{stroke:#000;stroke-miterlimit:10;}</style></defs><title>g9489</title><g id="Layer_2" data-name="Layer 2"><g id="svg2"><g id="g9489"><path id="path2928" class="cls-1" d="M71.33,14H21.23"/><path id="path2930" class="cls-1" d="M71.33,48.33H21.23"/><path id="text2934" class="cls-1" d="M7.63,8.43l-2.8,7.5h5.6l-2.8-7.5m-1.1-2h2.3l5.8,15.1h-2.1l-1.4-3.9H4.33l-1.4,3.9H.73l5.8-15.1"/><path id="path2898" class="cls-1" d="M70.93.53c16.7.1,33.4-.4,50,.7,7.2,1.2,10.2,3.1,14.4,7.1,6.9,6.7,9.4,17.1,8.6,26.3-.5,7.1-3.9,15-10.1,19.7a30,30,0,0,1-13.1,5.4c-10,1.3-20.2.8-30.3.9-6.5,0-13.1,0-19.6.1l.1-60.2Z"/><path id="path2932" class="cls-1" d="M203.73,30.33h-50.1"/><path id="text2942" class="cls-1" d="M210.63,22.63h2.2l4.2,6.2,4.2-6.2h2.2l-5.4,7.9v7.2h-2.1v-7.1l-5.3-8"/><path id="path2900" class="cls-1" d="M154.13,30.73a4.4,4.4,0,1,1-8.8,0h0a4.55,4.55,0,0,1,4.4-4.6A4.48,4.48,0,0,1,154.13,30.73Z"/><path id="text2938" class="cls-1" d="M5.13,48.63v5.6h3.3a3.29,3.29,0,0,0,2.4-.7,2.86,2.86,0,0,0,.8-2.1,2.71,2.71,0,0,0-.8-2.1,3.29,3.29,0,0,0-2.4-.7H5.13m0-6.2V47h3a3.4,3.4,0,0,0,2.2-.6,2.06,2.06,0,0,0,.7-1.7,1.94,1.94,0,0,0-.7-1.7,3.4,3.4,0,0,0-2.2-.6h-3M3,40.73h5.2a5.34,5.34,0,0,1,3.6,1,3.42,3.42,0,0,1,1.3,2.8,3.59,3.59,0,0,1-.6,2.2,2.56,2.56,0,0,1-1.9,1,3.64,3.64,0,0,1,2.3,1.4,4.33,4.33,0,0,1-.6,5.7,6.24,6.24,0,0,1-3.9,1.1H3V40.73"/></g></g></g></svg>