<svg xmlns="http://www.w3.org/2000/svg" viewBox="0 0 222.66 60.31"><defs><style>.cls-1{fill:#fff;}</style></defs><title>g9489</title><g id="Layer_2" data-name="Layer 2"><g id="svg2"><g id="g9489"><path id="path2928" class="cls-1" d="M70.56,13.46H20.48"/><path id="path2930" class="cls-1" d="M70.56,47.78H20.48"/><path id="text2934" class="cls-1" d="M6.94,7.91,4.16,15.44H9.73L6.94,7.91m-1.16-2H8.11L13.88,21H11.75l-1.38-3.88H3.54L2.16,21H0L5.78,5.89"/><path id="path2898" class="cls-1" d="M70.17,0c16.68.13,33.38-.4,50,.68,7.18,1.17,10.19,3.13,14.45,7.11,6.89,6.7,9.38,17.11,8.57,26.31-.47,7.14-3.91,15-10.06,19.72a29.05,29.05,0,0,1-13.11,5.38c-10,1.33-20.2.75-30.3.94-6.53,0-13,0-19.58.15V0Z"/><path id="path2932" class="cls-1" d="M203,29.83H152.88"/><path id="text2942" class="cls-1" d="M209.88,22.12h2.21l4.2,6.23,4.17-6.23h2.2l-5.36,7.93v7.22h-2.06V30.05l-5.36-7.93"/><path id="path2900" class="cls-1" d="M153.41,30.14a4.43,4.43,0,1,1-8.85,0h0a4.43,4.43,0,1,1,8.85,0Z"/><path id="text2938" class="cls-1" d="M4.39,48.12v5.55H7.68A3.7,3.7,0,0,0,10.12,53a2.6,2.6,0,0,0,.8-2.1,2.55,2.55,0,0,0-.8-2.09,3.7,3.7,0,0,0-2.44-.68H4.39m0-6.23v4.57h3a3.66,3.66,0,0,0,2.23-.56,2,2,0,0,0,.75-1.73,2,2,0,0,0-.75-1.71,3.59,3.59,0,0,0-2.23-.57h-3m-2-1.68H7.58a5.83,5.83,0,0,1,3.61,1A3.29,3.29,0,0,1,12.45,44a3.48,3.48,0,0,1-.64,2.21,3,3,0,0,1-1.91,1,3.8,3.8,0,0,1,3.18,3.92,3.79,3.79,0,0,1-1.38,3.14,6.16,6.16,0,0,1-3.92,1.1H2.34V40.21"/></g></g></g></svg>