<svg xmlns="http://www.w3.org/2000/svg" viewBox="0 0 204.98 66"><defs><style>.cls-1{stroke:#000;stroke-miterlimit:10;}</style></defs><title>g9502</title><g id="Layer_2" data-name="Layer 2"><g id="svg2"><g id="g9502"><path id="path4490" class="cls-1" d="M71.33,15.8H21.23"/><path id="path4492" class="cls-1" d="M71.33,50.1H21.23"/><path id="text4494" class="cls-1" d="M7.73,10.2l-2.8,7.5h5.6l-2.8-7.5m-1.2-2h2.3l5.8,15.1h-2.1l-1.4-3.9H4.33l-1.4,3.9H.73L6.53,8.2"/><path id="path4502" class="cls-1" d="M184.33,33.5h-50.1"/><path id="text4504" class="cls-1" d="M191.23,25.8h2.2l4.2,6.2,4.2-6.2H204l-5.4,7.9v7.2h-2.1V33.7l-5.3-7.9"/><path id="path2946" class="cls-1" d="M64.93.5c7.3,12.6,9,22.1,9,32.5,0,12.5-3.1,22.3-9,32.5,22.8,0,57.7-10.9,70.5-31.8C122.43,14.2,87.33.5,64.93.5Z"/><path id="text4498" class="cls-1" d="M5.13,50.4v5.5h3.3a3.29,3.29,0,0,0,2.4-.7,3.16,3.16,0,0,0,0-4.2,3.29,3.29,0,0,0-2.4-.7H5.13m0-6.1v4.6h3a3.4,3.4,0,0,0,2.2-.6,2.41,2.41,0,0,0,0-3.4,3.4,3.4,0,0,0-2.2-.6h-3m-2-1.7h5.2a5.34,5.34,0,0,1,3.6,1,3.42,3.42,0,0,1,1.3,2.8,3.59,3.59,0,0,1-.6,2.2,2.94,2.94,0,0,1-1.9,1A3.64,3.64,0,0,1,13,50.9a4.33,4.33,0,0,1-.6,5.7,6.24,6.24,0,0,1-3.9,1.1H3.13V42.5"/></g></g></g></svg>