<svg xmlns="http://www.w3.org/2000/svg" viewBox="0 0 203.26 65"><defs><style>.cls-1{fill:#fff;}</style></defs><title>g9502</title><g id="Layer_2" data-name="Layer 2"><g id="svg2"><g id="g9502"><path id="path4490" class="cls-1" d="M70.57,15.28H20.48"/><path id="path4492" class="cls-1" d="M70.57,49.6H20.48"/><path id="text4494" class="cls-1" d="M6.94,9.73,4.16,17.27H9.73L6.94,9.73m-1.16-2H8.11l5.77,15.15H11.75L10.37,19H3.54L2.16,22.86H0L5.78,7.71"/><path id="path4502" class="cls-1" d="M183.57,33H133.48"/><path id="text4504" class="cls-1" d="M190.48,25.3h2.2l4.2,6.23,4.17-6.23h2.21l-5.36,7.94v7.21h-2.06V33.24l-5.36-7.94"/><path id="path2946" class="cls-1" d="M64.17,0c7.25,12.58,9,22.09,9,32.49,0,12.55-3.15,22.31-9,32.51,22.78,0,57.7-10.86,70.46-31.83C121.74,13.67,86.59,0,64.17,0Z"/><path id="text4498" class="cls-1" d="M4.39,49.94v5.55H7.68a3.65,3.65,0,0,0,2.44-.68,2.6,2.6,0,0,0,.8-2.1,2.57,2.57,0,0,0-.8-2.09,3.7,3.7,0,0,0-2.44-.68H4.39m0-6.23v4.57h3a3.66,3.66,0,0,0,2.23-.56,2.35,2.35,0,0,0,0-3.44,3.59,3.59,0,0,0-2.23-.57h-3M2.34,42H7.58a5.83,5.83,0,0,1,3.61,1,3.31,3.31,0,0,1,1.26,2.77A3.46,3.46,0,0,1,11.81,48,3,3,0,0,1,9.9,49a3.8,3.8,0,0,1,3.18,3.93,3.81,3.81,0,0,1-1.37,3.13,6.13,6.13,0,0,1-3.93,1.11H2.34V42"/></g></g></g></svg>