<svg xmlns="http://www.w3.org/2000/svg" viewBox="0 0 215.58 66"><defs><style>.cls-1{stroke:#000;stroke-miterlimit:10;}</style></defs><title>g9514</title><g id="Layer_2" data-name="Layer 2"><g id="svg2"><g id="g9514"><path id="path4508" class="cls-1" d="M71.23,15.8H21.13"/><path id="path4510" class="cls-1" d="M71.23,50.1H21.13"/><path id="text4512" class="cls-1" d="M7.63,10.2l-2.8,7.5h5.6l-2.8-7.5m-1.1-2h2.3l5.8,15.1h-2.1l-1.4-3.9H4.33l-1.4,3.9H.73L6.53,8.2"/><path id="path4516" class="cls-1" d="M194.93,33.5h-50.1"/><path id="text4518" class="cls-1" d="M201.83,25.8H204l4.2,6.2,4.2-6.2h2.2l-5.4,7.9v7.2h-2.1V33.7l-5.3-7.9"/><path id="path4522" class="cls-1" d="M64.83.5c7.3,12.6,9,22.1,9,32.5,0,12.5-3.1,22.3-9,32.5,22.8,0,57.7-10.9,70.5-31.8C122.43,14.2,87.33.5,64.83.5Z"/><path id="text4524" class="cls-1" d="M5.13,50.4v5.5h3.3a3.29,3.29,0,0,0,2.4-.7,3.16,3.16,0,0,0,0-4.2,3.29,3.29,0,0,0-2.4-.7H5.13m0-6.1v4.6h3a3.4,3.4,0,0,0,2.2-.6,2.41,2.41,0,0,0,0-3.4,3.4,3.4,0,0,0-2.2-.6h-3M3,42.5h5.2a5.34,5.34,0,0,1,3.6,1,3.42,3.42,0,0,1,1.3,2.8,3.07,3.07,0,0,1-.7,2.2,2.94,2.94,0,0,1-1.9,1,3.64,3.64,0,0,1,2.3,1.4,4.33,4.33,0,0,1-.6,5.7,6.24,6.24,0,0,1-3.9,1.1H2.93V42.5"/><path id="path6044" class="cls-1" d="M144.83,33.7a4.4,4.4,0,1,1-8.8,0h0a4.55,4.55,0,0,1,4.4-4.6A4.48,4.48,0,0,1,144.83,33.7Z"/></g></g></g></svg>