<svg xmlns="http://www.w3.org/2000/svg" viewBox="0 0 211.25 65.01"><defs><style>.cls-1{fill:#fff;}</style></defs><title>g9527</title><g id="Layer_2" data-name="Layer 2"><g id="svg2"><g id="g9527"><path id="path6854" class="cls-1" d="M70.56,15.28H20.48"/><path id="path6856" class="cls-1" d="M70.56,49.59H20.48"/><path id="text6858" class="cls-1" d="M6.94,9.72,4.16,17.26H9.73L6.94,9.72m-1.16-2H8.11l5.77,15.15H11.75L10.37,19H3.54L2.16,22.85H0L5.78,7.7"/><path id="path6862" class="cls-1" d="M191.56,33H141.47"/><path id="text6864" class="cls-1" d="M198.48,25.3h2.2l4.2,6.22,4.17-6.22h2.2l-5.36,7.93v7.21h-2.06V33.23l-5.35-7.93"/><path id="path6868" class="cls-1" d="M72.16,0c7.26,12.57,9,22.08,9,32.48,0,12.56-3.15,22.31-9,32.52,22.79,0,57.7-10.87,70.47-31.84C129.73,13.66,94.58,0,72.16,0Z"/><path id="text6870" class="cls-1" d="M4.39,49.93v5.55H7.68a3.65,3.65,0,0,0,2.44-.68,2.6,2.6,0,0,0,.8-2.1,2.57,2.57,0,0,0-.8-2.09,3.7,3.7,0,0,0-2.44-.68H4.39m0-6.23v4.57h3a3.71,3.71,0,0,0,2.24-.56,2.37,2.37,0,0,0,0-3.44,3.64,3.64,0,0,0-2.24-.57h-3M2.34,42H7.58a5.9,5.9,0,0,1,3.61,1,3.31,3.31,0,0,1,1.27,2.77A3.51,3.51,0,0,1,11.81,48,2.94,2.94,0,0,1,9.9,49a3.8,3.8,0,0,1,3.18,3.93,3.78,3.78,0,0,1-1.38,3.13,6.1,6.1,0,0,1-3.92,1.11H2.34V42"/><path id="path6874" class="cls-1" d="M63.64,0c7.26,12.57,9,22.09,9,32.49,0,12.55-3.15,22.3-9,32.51"/></g></g></g></svg>