<svg xmlns="http://www.w3.org/2000/svg" viewBox="0 0 198.78 57.98"><defs><style>.cls-1{fill:#fff;}</style></defs><title>g9607</title><g id="Layer_2" data-name="Layer 2"><g id="svg2"><g id="g9607"><path id="text6818" class="cls-1" d="M6.94,23.47,4.16,31H9.73L6.94,23.47m-1.16-2H8.11L13.88,36.6H11.75l-1.38-3.88H3.54L2.16,36.6H0L5.78,21.46"/><path id="path6822" class="cls-1" d="M179.09,28.32H129"/><path id="text6824" class="cls-1" d="M186,20.6h2.2l4.2,6.23,4.17-6.23h2.2l-5.36,7.94v7.21h-2.06V28.54L186,20.6"/><path id="path6828" class="cls-1" d="M70.39,28.9H20.3"/><path id="path6830" class="cls-1" d="M119.88,29,69.67,58V0l50.21,29Z"/><path id="path6832" class="cls-1" d="M129.09,28.71a4.43,4.43,0,1,1-8.85,0h0a4.43,4.43,0,1,1,8.85,0Z"/></g></g></g></svg>