<svg xmlns="http://www.w3.org/2000/svg" viewBox="0 0 200.58 59.73"><defs><style>.cls-1{stroke:#000;stroke-miterlimit:10;}</style></defs><title>g9607</title><g id="Layer_2" data-name="Layer 2"><g id="svg2"><g id="g9607"><path id="text6818" class="cls-1" d="M7.73,24.37l-2.8,7.5h5.6l-2.8-7.5m-1.2-2h2.3l5.8,15.1h-2.1l-1.4-3.9H4.33l-1.4,3.9H.73l5.8-15.1"/><path id="path6822" class="cls-1" d="M179.83,29.17h-50.1"/><path id="text6824" class="cls-1" d="M186.83,21.47H189l4.2,6.2,4.2-6.2h2.2l-5.4,7.9v7.2h-2.1v-7.2l-5.3-7.9"/><path id="path6828" class="cls-1" d="M71.13,29.77H21"/><path id="path6830" class="cls-1" d="M120.63,29.87l-50.2,29V.87l50.2,29Z"/><path id="path6832" class="cls-1" d="M129.83,29.57a4.4,4.4,0,1,1-8.8,0h0a4.55,4.55,0,0,1,4.4-4.6A4.48,4.48,0,0,1,129.83,29.57Z"/></g></g></g></svg>