<svg xmlns="http://www.w3.org/2000/svg" viewBox="0 0 1540 1076.18"><defs><style>.cls-1{fill:#bdccd4;}.cls-1,.cls-2,.cls-3,.cls-33,.cls-4{stroke:#000;stroke-miterlimit:10;stroke-width:4px;}.cls-2{fill:#ff1d25;opacity:0.43;}.cls-3{fill:#ff931e;opacity:0.49;}.cls-4{fill:#7ac943;opacity:0.46;}.cls-5{font-size:65px;}.cls-12,.cls-25,.cls-34,.cls-5{font-family:MyriadPro-Regular, Myriad Pro;}.cls-6{letter-spacing:0.01em;}.cls-7{letter-spacing:0em;}.cls-8{letter-spacing:-0.01em;}.cls-9{letter-spacing:-0.01em;}.cls-10{letter-spacing:-0.03em;}.cls-11{letter-spacing:-0.01em;}.cls-12{font-size:66.4px;}.cls-13{letter-spacing:0.02em;}.cls-14{letter-spacing:-0.01em;}.cls-15{letter-spacing:-0.01em;}.cls-16{letter-spacing:-0.01em;}.cls-17{letter-spacing:-0.01em;}.cls-18{letter-spacing:0em;}.cls-19{letter-spacing:-0.01em;}.cls-20{letter-spacing:0em;}.cls-21{letter-spacing:0.02em;}.cls-22{letter-spacing:-0.01em;}.cls-23{letter-spacing:0em;}.cls-24{letter-spacing:-0.01em;}.cls-25{font-size:61.6px;}.cls-26{letter-spacing:-0.03em;}.cls-27{letter-spacing:0em;}.cls-28{letter-spacing:-0.01em;}.cls-29{letter-spacing:0em;}.cls-30{letter-spacing:-0.01em;}.cls-31{letter-spacing:-0.01em;}.cls-32{letter-spacing:0em;}.cls-33{fill:#3fa9f5;opacity:0.19;}.cls-34{font-size:40px;}.cls-35{letter-spacing:0.01em;}.cls-36{letter-spacing:0em;}.cls-37{letter-spacing:0.01em;}.cls-38{letter-spacing:0em;}.cls-39{letter-spacing:-0.01em;}.cls-40{letter-spacing:0em;}.cls-41{letter-spacing:-0.01em;}.cls-42{letter-spacing:0em;}.cls-43{letter-spacing:0.01em;}.cls-44{letter-spacing:-0.01em;}.cls-45{letter-spacing:0em;}.cls-46{letter-spacing:-0.01em;}.cls-47{letter-spacing:-0.01em;}.cls-48{letter-spacing:0.03em;}</style></defs><title>pyramid</title><g id="Layer_2" data-name="Layer 2"><g id="Layer_1-2" data-name="Layer 1"><rect class="cls-1" x="2" y="924.58" width="1536" height="149.6"/><rect class="cls-2" x="144.4" y="714.58" width="1249.6" height="149.6"/><rect class="cls-3" x="271.2" y="497.38" width="984.8" height="149.6"/><rect class="cls-4" x="395.2" y="276.78" width="736.8" height="149.6"/><text class="cls-5" transform="translate(595.5 550.52)"><tspan class="cls-6">I</tspan><tspan class="cls-7" x="16.18" y="0">n</tspan><tspan class="cls-8" x="52" y="0">t</tspan><tspan x="73.12" y="0">el X86 e</tspan><tspan class="cls-8" x="284.95" y="0">t</tspan><tspan class="cls-9" x="306.08" y="0">c</tspan><tspan x="334.55" y="0">.</tspan><tspan class="cls-10" x="-299.52" y="78">F</tspan><tspan x="-269.55" y="78">irst L</tspan><tspan class="cls-11" x="-141.37" y="78">a</tspan><tspan class="cls-9" x="-110.56" y="78">y</tspan><tspan x="-80.6" y="78">er of human </tspan><tspan class="cls-9" x="262.73" y="78">r</tspan><tspan x="283.33" y="78">eadable </tspan><tspan class="cls-8" x="513.88" y="78">c</tspan><tspan x="542.61" y="78">ode</tspan></text><text class="cls-12" transform="translate(65.7 1026.92)">Bina<tspan class="cls-13" x="120.38" y="0">r</tspan><tspan x="143.75" y="0">y </tspan><tspan class="cls-14" x="189.1" y="0">C</tspan><tspan x="226.89" y="0">ode </tspan><tspan class="cls-15" x="348.13" y="0">r</tspan><tspan x="369.18" y="0">ead </tspan><tspan class="cls-16" x="485.97" y="0">b</tspan><tspan x="523.29" y="0">y ha</tspan><tspan class="cls-17" x="637.5" y="0">r</tspan><tspan x="658.55" y="0">d</tspan><tspan class="cls-18" x="696" y="0">w</tspan><tspan x="744.6" y="0">a</tspan><tspan class="cls-19" x="776.6" y="0">r</tspan><tspan x="797.65" y="0">e not human </tspan><tspan class="cls-17" x="1166.1" y="0">r</tspan><tspan x="1187.15" y="0">eadable</tspan></text><text class="cls-12" transform="translate(174.23 771.12)">H<tspan class="cls-20" x="43.29" y="0">e</tspan><tspan x="76.36" y="0">xadecimal </tspan><tspan class="cls-17" x="372.23" y="0">r</tspan><tspan x="393.28" y="0">ep</tspan><tspan class="cls-19" x="464.33" y="0">r</tspan><tspan x="485.38" y="0">ese</tspan><tspan class="cls-18" x="578.2" y="0">n</tspan><tspan x="614.79" y="0">t</tspan><tspan class="cls-18" x="636.77" y="0">a</tspan><tspan x="668.51" y="0">tion of bina</tspan><tspan class="cls-21" x="985.49" y="0">r</tspan><tspan x="1008.87" y="0">y </tspan><tspan class="cls-22" x="1054.22" y="0">c</tspan><tspan x="1083.57" y="0">ode </tspan><tspan class="cls-15" x="245.18" y="79.68">r</tspan><tspan x="266.23" y="79.68">ead </tspan><tspan class="cls-16" x="383.02" y="79.68">b</tspan><tspan x="420.34" y="79.68">y ope</tspan><tspan class="cls-23" x="573.19" y="79.68">r</tspan><tspan class="cls-18" x="594.57" y="79.68">a</tspan><tspan x="626.31" y="79.68">ting s</tspan><tspan class="cls-24" x="778.16" y="79.68">y</tspan><tspan x="809.04" y="79.68">s</tspan><tspan class="cls-22" x="835.33" y="79.68">t</tspan><tspan x="856.91" y="79.68">em</tspan></text><text class="cls-12" transform="translate(678.49 371.72)">C,C++</text><text class="cls-25" transform="translate(486.02 150.71)"><tspan class="cls-26">P</tspan><tspan x="31.23" y="0">e</tspan><tspan class="cls-27" x="62.09" y="0">r</tspan><tspan class="cls-28" x="82.48" y="0">l</tspan><tspan x="96.4" y="0">,</tspan><tspan class="cls-29" x="109.15" y="0">P</tspan><tspan x="142.17" y="0">ython,Shel</tspan><tspan class="cls-30" x="416.47" y="0">l</tspan><tspan x="430.39" y="0">,J</tspan><tspan class="cls-31" x="465.93" y="0">a</tspan><tspan class="cls-32" x="495.13" y="0">v</tspan><tspan x="524.51" y="0">a</tspan></text><rect class="cls-33" x="484" y="58.18" width="560" height="149.6"/><text class="cls-34" transform="translate(491.47 33.48)"><tspan class="cls-35">S</tspan><tspan x="19.96" y="0">c</tspan><tspan class="cls-36" x="37.88" y="0">r</tspan><tspan x="51.12" y="0">ipting/</tspan><tspan class="cls-37" x="164.12" y="0">I</tspan><tspan class="cls-38" x="174.08" y="0">n</tspan><tspan class="cls-39" x="196.12" y="0">t</tspan><tspan x="209.12" y="0">e</tspan><tspan class="cls-40" x="229.16" y="0">r</tspan><tspan x="242.4" y="0">p</tspan><tspan class="cls-41" x="265.16" y="0">r</tspan><tspan class="cls-42" x="277.84" y="0">e</tspan><tspan class="cls-39" x="297.88" y="0">t</tspan><tspan x="310.88" y="0">ed Languages</tspan></text><text class="cls-34" transform="translate(580.14 253.78)"><tspan class="cls-43">H</tspan><tspan x="26.48" y="0">igh </tspan><tspan class="cls-44" x="88.88" y="0">L</tspan><tspan class="cls-45" x="107.2" y="0">e</tspan><tspan class="cls-46" x="127.24" y="0">v</tspan><tspan x="146.08" y="0">el Languages</tspan></text><text class="cls-34" transform="translate(595.66 472.2)"><tspan class="cls-39">A</tspan><tspan x="24.24" y="0">ssembly Language</tspan></text><text class="cls-34" transform="translate(649.7 687.2)"><tspan class="cls-35">M</tspan><tspan x="32.4" y="0">achine </tspan><tspan class="cls-47" x="151.88" y="0">C</tspan><tspan x="174.64" y="0">ode</tspan></text><text class="cls-34" transform="translate(669.46 911.2)">Bina<tspan class="cls-48" x="72.52" y="0">r</tspan><tspan x="86.6" y="0">y </tspan><tspan class="cls-47" x="113.92" y="0">C</tspan><tspan x="136.68" y="0">ode</tspan></text></g></g></svg>